<svg width="76" height="26" viewBox="0 0 76 26" fill="none" xmlns="http://www.w3.org/2000/svg">
<rect width="71" height="26" rx="8" fill="#3C3C3B"/>
<line x1="26.5" y1="19.5" x2="26.5" y2="6.5" stroke="#5C5B58" stroke-linecap="round"/>
<path d="M31.8533 18V8.18182H38.354V9.89329H33.9292V12.2328H37.9226V13.9442H33.9292V18H31.8533ZM41.7542 8.18182V18H39.712V8.18182H41.7542ZM45.49 18.139C45.0202 18.139 44.6015 18.0575 44.2339 17.8945C43.8664 17.7283 43.5756 17.4838 43.3614 17.161C43.1505 16.835 43.045 16.4292 43.045 15.9434C43.045 15.5343 43.1201 15.1907 43.2703 14.9126C43.4205 14.6346 43.6251 14.4109 43.884 14.2415C44.1428 14.0721 44.4369 13.9442 44.7661 13.858C45.0985 13.7717 45.4468 13.7109 45.8112 13.6758C46.2394 13.631 46.5846 13.5895 46.8467 13.5511C47.1088 13.5096 47.2989 13.4489 47.4172 13.369C47.5354 13.2891 47.5945 13.1708 47.5945 13.0142V12.9854C47.5945 12.6818 47.4987 12.4469 47.3069 12.2807C47.1183 12.1145 46.8499 12.0314 46.5015 12.0314C46.134 12.0314 45.8415 12.1129 45.6242 12.2759C45.4069 12.4357 45.2631 12.6371 45.1927 12.88L43.3039 12.7266C43.3998 12.2791 43.5883 11.8924 43.8696 11.5664C44.1508 11.2372 44.5136 10.9847 44.9578 10.8089C45.4053 10.63 45.923 10.5405 46.5111 10.5405C46.9202 10.5405 47.3117 10.5884 47.6856 10.6843C48.0628 10.7802 48.3968 10.9288 48.6876 11.1301C48.9816 11.3315 49.2133 11.5904 49.3827 11.9068C49.5521 12.22 49.6368 12.5955 49.6368 13.0334V18H47.7V16.9789H47.6425C47.5242 17.209 47.366 17.4119 47.1679 17.5877C46.9697 17.7603 46.7316 17.8961 46.4536 17.9952C46.1755 18.0911 45.8543 18.139 45.49 18.139ZM46.0748 16.7296C46.3753 16.7296 46.6405 16.6705 46.8706 16.5522C47.1008 16.4308 47.2813 16.2678 47.4124 16.0632C47.5434 15.8587 47.6089 15.627 47.6089 15.3681V14.5866C47.545 14.6282 47.4571 14.6665 47.3453 14.7017C47.2366 14.7337 47.1135 14.764 46.9761 14.7928C46.8387 14.8184 46.7013 14.8423 46.5638 14.8647C46.4264 14.8839 46.3018 14.9015 46.1899 14.9174C45.9502 14.9526 45.7409 15.0085 45.5619 15.0852C45.3829 15.1619 45.2439 15.2658 45.1448 15.3968C45.0457 15.5247 44.9962 15.6845 44.9962 15.8762C44.9962 16.1543 45.0969 16.3668 45.2982 16.5138C45.5028 16.6577 45.7616 16.7296 46.0748 16.7296ZM57.348 12.7362L55.4783 12.8512C55.4464 12.6914 55.3777 12.5476 55.2722 12.4197C55.1667 12.2887 55.0277 12.1848 54.8551 12.1081C54.6857 12.0282 54.4828 11.9883 54.2463 11.9883C53.9299 11.9883 53.663 12.0554 53.4457 12.1896C53.2283 12.3207 53.1197 12.4964 53.1197 12.717C53.1197 12.8928 53.19 13.0414 53.3306 13.1628C53.4712 13.2843 53.7125 13.3817 54.0545 13.4553L55.3873 13.7237C56.1032 13.8707 56.6369 14.1072 56.9885 14.4332C57.34 14.7592 57.5158 15.1875 57.5158 15.718C57.5158 16.2006 57.3736 16.6241 57.0891 16.9885C56.8079 17.3528 56.4212 17.6373 55.929 17.8418C55.44 18.0431 54.8759 18.1438 54.2367 18.1438C53.2619 18.1438 52.4853 17.9409 51.9068 17.535C51.3315 17.1259 50.9943 16.5698 50.8952 15.8667L52.9039 15.7612C52.9647 16.0584 53.1117 16.2853 53.345 16.4419C53.5783 16.5953 53.8771 16.6721 54.2415 16.6721C54.5994 16.6721 54.8871 16.6033 55.1044 16.4659C55.3249 16.3253 55.4368 16.1447 55.44 15.9242C55.4368 15.7388 55.3585 15.587 55.2051 15.4688C55.0517 15.3473 54.8152 15.2546 54.4956 15.1907L53.2203 14.9366C52.5012 14.7928 51.9659 14.5435 51.6143 14.1887C51.266 13.834 51.0918 13.3817 51.0918 12.832C51.0918 12.359 51.2196 11.9515 51.4753 11.6096C51.7342 11.2676 52.0969 11.0039 52.5636 10.8185C53.0334 10.6332 53.5831 10.5405 54.2127 10.5405C55.1428 10.5405 55.8746 10.737 56.4084 11.1301C56.9453 11.5233 57.2585 12.0586 57.348 12.7362ZM60.6523 15.881L60.6571 13.4313H60.9543L63.313 10.6364H65.6573L62.4884 14.3374H62.0042L60.6523 15.881ZM58.8018 18V8.18182H60.8441V18H58.8018ZM63.4041 18L61.2372 14.7928L62.5987 13.3498L65.7963 18H63.4041Z" fill="white"/>
<g clip-path="url(#clip0_26_772)">
<g clip-path="url(#clip1_26_772)">
<path d="M11.3792 19.1161C10.693 18.5761 9.96172 18.0597 9.46222 17.3318C8.41034 16.0476 7.60034 14.5615 7.04684 12.9989C6.71215 11.983 6.59684 10.8934 6.16597 9.91637C5.71484 9.20762 6.24359 8.43137 7.02097 8.20637C7.3669 8.13999 7.97497 7.81262 7.24034 8.04662C6.58222 8.52924 6.51865 7.60787 7.19365 7.54937C7.6549 7.48749 7.82365 7.11062 7.66615 6.77199C7.17115 6.44912 8.8654 6.09531 8.01265 5.61324C7.12503 4.65699 9.25465 4.47249 8.72928 5.56037C8.6044 6.39624 10.2177 5.40624 9.84303 6.37262C10.2238 6.83668 11.2684 6.47837 11.242 7.12918C11.7966 7.16743 11.9867 7.63374 12.5076 7.66918C13.0476 7.91274 14.0247 8.10456 14.208 8.71262C13.6737 9.13618 12.4345 7.83793 12.3743 9.01074C12.5363 10.7432 12.4947 12.5275 13.128 14.1773C13.4278 15.1757 14.1546 15.9621 14.8099 16.7401C15.4382 17.5017 16.2893 18.0383 17.1555 18.4894C17.916 18.8483 18.7362 19.0857 19.5647 19.2353C19.9005 18.9782 20.4945 18.0226 21.0182 18.4253C21.0435 18.8787 19.9776 19.3726 20.9676 19.3225C21.5498 19.147 21.9531 19.7725 22.4318 19.2077C22.8733 19.7309 24.2655 18.8742 23.9522 19.9424C23.5275 20.2163 22.9082 20.0509 22.483 20.4278C21.7815 20.0774 21.223 20.7411 20.4467 20.6573C19.5844 20.812 18.7075 20.8739 17.8333 20.875C16.399 20.7625 14.9348 20.7141 13.5707 20.2146C12.8018 19.9913 12.052 19.5537 11.377 19.1155L11.3792 19.1161ZM12.5903 19.6409C13.3407 19.9649 14.0753 20.3069 14.8965 20.4104C16.2015 20.5915 17.5487 20.8716 18.8582 20.6162C18.2653 20.3485 17.6528 20.7203 17.0622 20.425C16.3534 20.5769 15.5997 20.3856 14.8684 20.2917C14.05 19.9272 13.1663 19.6763 12.4002 19.2027C11.4422 18.8528 12.8952 19.6516 13.1539 19.7162C13.7524 20.056 12.4958 19.5475 12.318 19.4012C11.8163 19.12 11.7527 19.1785 12.2685 19.4642L12.5835 19.6409H12.5903ZM11.1615 18.6317C11.8888 18.9017 11.1582 18.1199 10.8257 18.1649C10.6783 17.9089 10.2615 17.7469 10.5557 17.6097C10.027 17.7931 10.0022 16.9122 9.75415 17.0382C9.19503 16.8616 9.53647 16.2361 8.87103 15.8513C8.81028 15.4463 8.20953 15.0959 8.01828 14.4856C7.9339 14.1728 7.33934 13.2762 7.7044 14.1109C8.0149 14.9153 8.56165 15.6032 9.01728 16.2906C9.37053 16.9454 9.7879 17.6294 10.4314 18.0383C10.6485 18.2464 10.8578 18.5654 11.1638 18.6306L11.1615 18.6317ZM9.06678 16.3311C9.19953 16.5685 9.09209 16.2214 9.06678 16.3311ZM12.0328 18.9541C12.1937 18.8821 11.8011 18.8629 12.0328 18.9541ZM12.4266 19.0981C12.3855 18.8995 12.2466 19.2094 12.4266 19.0981ZM12.9216 19.3039C13.1567 19.0801 12.5588 19.1633 12.9216 19.3039ZM13.7687 19.7764C13.9116 19.5655 13.3114 19.6977 13.7687 19.7764ZM12.1431 18.643C12.5087 18.4067 11.6706 18.6396 12.1431 18.643ZM12.5143 18.8286C12.5031 18.7037 12.3822 18.8849 12.5143 18.8286ZM14.3667 19.9851C14.6648 20.173 16.1059 20.3969 15.2037 20.0622C15.0518 20.0937 13.5302 19.6313 14.3667 19.9851ZM11.4259 17.6946C11.3978 17.5697 10.9635 17.5562 11.4259 17.6946ZM12.2882 18.1975C12.5132 18.04 11.8225 18.0766 12.2882 18.1975ZM13.0195 18.6475C13.3418 18.526 12.4975 18.5254 13.0195 18.6475ZM11.0738 17.3116C11.4225 17.5793 12.4834 17.3453 11.6082 17.1518C11.2105 16.9397 10.3144 16.7946 10.9253 17.2795L11.0732 17.3116H11.0738ZM13.5038 18.7949C13.65 18.5474 12.8929 18.6531 13.5038 18.7949ZM12.7652 18.2082C13.6202 18.4501 12.0469 17.6682 12.5543 18.1182L12.6668 18.1688L12.7652 18.2071V18.2082ZM14.2457 19.0632C15.0557 19.0711 13.5145 18.9507 14.2457 19.0632ZM10.7622 16.843C10.7307 16.6922 10.5625 16.8554 10.7622 16.843ZM15.6148 19.831C15.6362 19.5587 15.3505 20.0335 15.6148 19.831ZM12.1442 17.6879C12.0953 17.5444 11.8911 17.6822 12.1442 17.6879ZM10.8392 16.7485C11.3038 16.7204 10.2036 16.5437 10.8392 16.7485ZM9.29403 15.7506C9.23609 15.5279 8.7889 15.3501 9.29403 15.7506ZM13.3508 18.3252C13.3114 18.346 13.2664 18.2279 13.3508 18.3252ZM15.8753 19.8749C15.8674 19.7264 15.738 19.9311 15.8753 19.8749ZM13.1275 18.0946C13.1725 17.9033 12.7309 18.0366 13.1275 18.0946ZM11.2465 16.9021C11.5924 16.8655 10.6924 16.6686 11.2465 16.9021ZM14.428 18.8792C14.9668 18.6655 13.9032 18.7752 14.428 18.8792ZM12.7731 17.7559C13.3935 17.8358 12.0345 17.3341 12.6364 17.7109L12.7731 17.7559ZM14.9303 19.0823C15.5097 18.7364 15.3184 19.894 15.9135 19.1802C16.5002 18.7516 15.4073 19.7101 16.1295 19.2567C16.6527 18.9068 17.425 19.4226 17.9127 19.5902C18.2637 19.5734 18.6045 19.894 18.9645 19.6988C19.6564 19.5121 17.61 19.4221 18.1467 19.0913C17.5133 19.2758 17.0453 18.8719 16.7331 18.4658C16.0221 18.3016 15.2008 17.9382 14.8459 17.3093C14.7013 17.0731 15.054 17.3431 14.721 16.9566C14.2935 16.5758 14.0798 16.1432 13.7918 15.6797C13.4487 15.4969 13.4076 14.9575 13.3733 15.6617C13.3761 15.2174 12.9587 14.9176 12.8558 15.0419C12.8541 14.6144 13.303 14.8281 12.9885 14.512C12.921 14.0676 12.6983 13.6064 12.6319 13.1046C12.5278 12.8627 12.6173 12.3452 12.2775 12.8926C12.1538 13.4702 12.2365 12.1827 12.4294 12.6068C12.6825 12.1737 12.3383 12.2243 12.3248 12.2845C12.4896 11.9189 12.4294 11.4002 12.2815 11.5982C12.3692 11.2101 12.4204 10.1723 12.1504 10.3562C12.3135 9.95124 12.4609 8.50168 11.7499 9.05406C11.4619 9.05799 10.9635 9.15868 10.7278 9.27568C11.4664 9.68293 10.6536 9.42306 10.3521 9.35781C10.3127 9.73468 10.0146 9.57156 9.64334 9.57549C10.2385 9.64862 9.35365 10.183 9.01334 9.97599C8.57009 10.1875 9.39584 10.7162 9.02178 10.8799C9.0679 11.1257 8.34284 10.7911 8.39965 11.3603C7.9699 11.1792 8.34059 12.0353 8.55603 11.7456C9.28728 11.9436 9.07072 12.3947 9.08928 12.8239C8.97003 13.0737 8.5009 12.2367 8.98465 12.2755C8.60215 11.6551 8.56278 12.0505 8.24497 12.3396C8.17184 12.3604 9.05497 12.7502 8.50034 12.9415C8.98803 13.0169 9.00209 13.4438 9.10109 13.7132C9.39359 14.0187 9.3334 13.3757 9.6844 13.7431C9.46222 13.4168 8.50878 12.8222 9.27659 13.0118C9.27265 12.6833 9.13765 12.4178 9.37334 12.424C9.60678 12.0021 9.12922 13.4646 9.65459 12.928C9.79972 12.8644 9.83628 12.5061 10.0973 12.9617C10.4764 13.3352 10.2345 13.6052 9.69903 13.2632C9.79465 13.5884 10.4151 13.7042 10.2981 14.2122C10.4218 14.6594 10.5945 14.4946 10.7453 14.4687C10.8578 14.9029 10.9309 14.5834 10.9365 14.377C11.4777 14.4929 11.3505 14.8129 11.5204 15.0362C11.8933 15.205 10.986 13.8955 11.6273 14.6425C12.3006 15.25 11.8804 15.5048 11.2757 15.4075C11.6582 15.3766 11.782 15.925 12.2601 15.9053C12.6966 16.1134 12.9913 16.9105 12.2398 16.5781C11.9794 16.3429 11.0552 16.0527 11.8101 16.4993C12.5065 16.8222 13.06 17.0146 13.7316 17.4201C14.212 17.7576 14.4195 18.1559 14.6018 18.2341C14.1979 18.427 13.3845 18.0799 13.983 17.9736C13.6062 17.905 13.182 17.7149 13.5432 18.184C13.8503 18.4405 14.6305 18.4135 14.7705 18.4427C14.6524 18.7037 14.4482 18.724 14.775 18.7448C14.4105 18.9394 14.892 18.9698 14.9258 19.0806L14.9303 19.0823ZM14.1844 16.9763C13.9622 16.744 13.9048 16.3097 14.145 16.6877C14.2688 16.7372 14.5388 17.3982 14.1844 16.9763ZM16.6144 18.5125C16.7528 18.5035 16.6183 18.6177 16.6144 18.5125ZM13.8357 16.4003C13.9155 16.6703 13.8267 16.0493 13.8357 16.4003ZM13.5938 16.0757C13.9453 16.2276 13.3142 15.5357 13.5938 16.0757ZM10.6677 14.0507C10.8319 14.0069 10.7487 14.3309 10.6677 14.0507ZM12.9964 15.313C13.1089 15.6302 13.0977 14.9344 12.9964 15.313ZM11.3511 14.1689C11.593 14.3646 11.2352 13.9607 11.3511 14.1689ZM12.763 14.6211C12.4986 14.0288 12.9508 14.2977 12.822 14.7179L12.763 14.6211ZM10.3285 12.9977C10.216 12.8031 10.0152 12.2327 10.0782 12.0584C10.1344 12.3419 10.6812 13.279 10.3459 12.4521C9.97578 11.7546 10.7886 12.6782 10.8724 12.8526C10.9118 13.0253 10.644 12.8054 10.8252 13.2115C10.4944 12.7491 10.63 13.4669 10.329 13.0034L10.3285 12.9977ZM9.5764 12.4791C9.74853 12.7885 9.60734 12.0269 9.5764 12.4791ZM9.91503 12.5961C10.1884 13.0714 10.0765 12.2552 9.91503 12.5961ZM9.09378 11.9774C8.81365 11.6989 8.61115 11.443 9.10728 11.8047C9.29853 11.812 8.68259 11.2214 9.1534 11.6168C9.6484 11.7068 9.39753 12.4285 9.09434 11.9768L9.09378 11.9774ZM9.52128 11.9661C9.6844 11.8047 9.6079 12.1247 9.52128 11.9661ZM9.78453 12.0505C10.0838 12.2446 9.53703 11.5881 9.78453 12.0505ZM9.2614 11.551C8.4469 10.8254 10.2852 11.9296 9.39415 11.686L9.2614 11.551ZM11.5947 12.9066C11.242 12.6957 11.5007 11.4194 11.6211 12.2918C11.9642 12.181 11.602 12.7429 11.8573 12.7373C11.818 13.0917 11.7027 13.2199 11.5947 12.9066ZM12.4575 13.4168C12.5307 13.6801 12.4913 13.0321 12.4575 13.4168ZM12.3079 13.2683C12.3473 13.1041 12.3113 13.4618 12.3079 13.2683ZM9.42678 11.3125C8.90365 10.5908 10.9472 12.0426 9.76203 11.4953C9.63828 11.4627 9.48922 11.4514 9.42678 11.3125ZM11.089 12.1934C11.1992 12.2946 11.0395 11.5859 11.089 12.1934ZM12.3507 13.0034C12.448 12.6574 12.358 13.2323 12.3507 13.0034ZM9.50722 11.0369C9.81828 10.9705 10.801 11.5825 9.89815 11.2112C9.79859 11.101 9.5854 11.1511 9.50722 11.0369ZM12.1768 12.3677C12.2106 11.7462 12.3625 11.9965 12.178 12.4577L12.1768 12.3677ZM9.7384 10.8209C9.86553 10.6352 9.40203 9.98106 9.80478 10.5863C9.97353 10.7247 10.3093 10.8181 10.0185 10.8766C10.477 11.2816 9.90603 10.9862 9.73897 10.8203L9.7384 10.8209ZM12.0447 12.1742C12.1318 11.4655 12.1217 12.5888 12.0447 12.1742ZM9.47403 10.1672C9.57078 10.1256 9.52465 10.2966 9.47403 10.1672ZM10.0759 10.5256C10.3617 10.8878 10.2306 10.2004 10.0759 10.5256ZM11.773 11.4694C11.805 11.6511 11.7718 11.3457 11.773 11.4694ZM11.6745 11.2523C11.8995 11.56 11.4394 10.6712 11.6745 11.2523ZM11.53 10.8709C11.665 11.1724 11.4906 10.6307 11.53 10.8709ZM11.7651 10.4884C11.6031 10.2038 11.9693 9.23406 12.0103 9.83593C11.8399 10.3051 11.9614 10.5672 12.0795 9.93718C12.2989 9.44218 12.0328 10.9142 11.7651 10.4884ZM12.007 9.04506C12.0773 8.95843 12.0227 9.14912 12.007 9.04506ZM11.6025 17.005C11.6149 17.0579 11.5069 16.9206 11.6025 17.005ZM12.435 17.4257C12.898 17.545 12.8963 17.3537 12.4772 17.2964C12.2522 17.0871 11.5423 16.8649 12.178 17.2705C12.2196 17.383 12.3523 17.3751 12.435 17.4257ZM10.7925 16.3345C11.0473 16.5257 11.7527 16.8734 11.1559 16.4076C11.3573 16.1736 10.7706 16.0487 10.9647 15.8924C10.4697 15.5886 10.5737 15.6111 10.9208 15.6263C10.3257 15.3602 11.0068 15.3805 10.9748 15.2438C10.7453 15.1988 9.83515 14.8388 10.3707 15.2731C9.82615 14.9957 10.2413 15.3766 10.0765 15.3366C9.51397 15.1847 10.5715 15.7607 9.98815 15.6179C10.3071 15.871 10.8477 16.2664 10.1232 15.8856C10.0275 16.0229 10.6418 16.2316 10.7982 16.3356L10.7925 16.3345ZM11.6627 16.8351C12.7202 17.176 11.1435 16.4189 11.6627 16.8351ZM16.1177 19.534C16.1312 19.3236 15.9732 19.714 16.1177 19.534ZM16.5756 19.7269C16.8197 19.4907 16.5857 20.1038 16.9806 19.669C16.9845 19.3579 16.9693 19.174 16.5272 19.552C16.4052 19.6195 16.3512 19.9064 16.5762 19.7264L16.5756 19.7269ZM9.3064 15.16C9.23159 14.8652 8.78103 14.8664 9.3064 15.16ZM9.79578 15.4806C9.61409 15.1797 9.14778 15.2078 9.79578 15.4806ZM12.5779 17.1586C12.8496 17.4004 13.8255 17.3357 12.9075 17.1884C12.7725 16.9876 12.0452 17.0365 12.5779 17.1586ZM16.4018 19.5211C16.8197 19.1701 15.9968 19.6774 16.4018 19.5211ZM17.2714 20.1184C17.2742 20.0059 17.0914 20.1674 17.2714 20.1184ZM17.2731 19.9609C17.736 19.4716 16.8248 19.9891 17.2731 19.9609ZM8.10378 14.1531C7.71003 13.5906 7.85853 13.3375 7.47828 12.8779C7.40628 12.5264 6.82578 11.7287 7.1779 12.5742C7.50078 13.0692 7.5964 13.8342 8.10378 14.1548V14.1531ZM17.1263 19.804C17.9785 19.2539 16.7775 19.5644 17.1263 19.804ZM17.7765 20.0588C18.204 19.6932 17.5065 19.9823 17.7765 20.0588ZM9.16128 14.5384C9.28334 14.3567 8.84628 14.5148 9.16128 14.5384ZM17.641 19.885C18.0538 19.6189 17.5453 19.66 17.5662 19.9092L17.641 19.885ZM12.0373 16.3525C12.0233 16.1725 11.8191 16.3677 12.0373 16.3525ZM12.3833 16.5516C12.273 16.3289 12.2145 16.5865 12.3833 16.5516ZM18.3036 20.0644C18.8323 19.6819 17.983 19.9913 18.1928 20.1376L18.3036 20.0644ZM18.1011 19.9666C18.5325 19.6054 17.6455 20.1263 18.1011 19.9666ZM19.1361 20.6556C19.4252 20.4621 18.7845 20.5937 19.1361 20.6556ZM9.42734 14.4062C9.81547 14.4929 10.977 15.3614 10.2919 14.4664C9.9409 14.3624 10.1513 13.5046 9.79297 13.6564C10.0332 14.0581 9.98984 14.2291 9.48584 13.9759C8.8519 13.6666 9.12978 14.1289 9.25353 14.2572C9.08478 14.2966 9.47684 14.4034 9.4279 14.4068L9.42734 14.4062ZM7.66109 13.0112C7.73028 12.7244 7.02153 11.4306 7.3264 12.3632C7.43609 12.5584 7.42484 12.9286 7.66109 13.0112ZM10.9045 15.0109C10.8949 14.9873 10.7042 14.8439 10.9045 15.0109ZM11.3961 15.1257C11.3961 14.8219 10.8527 15.0019 11.3961 15.1257ZM15.6582 17.8122C15.5766 17.6041 15.3375 17.8077 15.6582 17.8122ZM15.8629 17.9618C15.8325 17.8454 15.7504 17.9843 15.8629 17.9618ZM17.5521 19.0261C17.7152 18.9062 17.3496 19.0103 17.5521 19.0261ZM8.54253 13.2374C9.00715 13.0574 8.04472 13.1091 8.54253 13.2374ZM15.2813 17.4831C15.2757 17.1822 14.9848 17.5579 15.2813 17.4831ZM8.35859 12.8087C8.65672 12.7075 8.08297 12.7424 8.35859 12.8087ZM9.22484 13.2284C9.21922 13.1294 9.13315 13.2661 9.22484 13.2284ZM19.7931 19.7084C20.1767 19.6307 21.052 19.9036 21.1937 19.6071C20.7268 19.5959 19.581 19.2781 19.527 19.6825L19.6283 19.6994L19.7931 19.7095V19.7084ZM9.50047 13.2981C9.50722 12.9932 9.26309 13.2869 9.50047 13.2981ZM7.22234 11.7175C7.11884 11.137 6.82859 11.6297 7.22234 11.7175ZM7.76515 11.8542C7.7719 11.6674 7.2679 11.6866 7.76515 11.8542ZM8.07565 12.0061C8.0059 12.0977 7.98565 11.9329 8.07565 12.0061ZM10.0292 13.2587C10.1215 13.1744 9.81153 13.1969 10.0292 13.2587ZM7.86922 11.6612C7.81634 11.2225 7.23922 11.5954 7.86922 11.6612ZM6.75547 10.9384C6.73972 10.7359 6.6469 11.0149 6.75547 10.9384ZM6.9214 10.8136C6.8944 10.5734 6.77909 10.8439 6.9214 10.8136ZM7.83659 11.3592C8.22359 11.2073 7.13178 11.0442 7.75784 11.3311L7.83659 11.3592ZM20.0867 18.9287C20.3342 18.7015 19.7717 18.8584 20.0867 18.9287ZM21.5661 19.6954C21.6657 19.4029 21.3158 19.7348 21.5661 19.6954ZM7.9294 10.8822C7.97047 10.5981 7.62228 10.9384 7.9294 10.8822ZM6.62665 10.0103C6.55803 9.60812 6.56815 8.90499 7.2364 9.14237C6.34372 9.32012 7.85515 10.2527 7.6639 9.51587C8.03965 9.53443 8.39853 9.29368 8.20109 9.65818C8.9419 9.57774 9.45378 8.93537 10.1693 9.02593C10.7318 8.95168 11.3348 8.89656 11.9355 8.67156C12.4288 8.63612 12.903 8.10512 12.633 7.79012C11.9603 7.73387 11.256 7.81712 10.5124 7.96562C9.68834 8.13662 8.94022 8.46231 8.10884 8.60124C7.29884 8.71037 8.27197 8.90106 8.03965 8.94437C7.61778 9.09062 8.54422 9.18962 7.98509 9.34487C7.63972 9.27906 7.28028 9.16037 7.42822 8.79643C6.65197 8.89768 5.96965 9.21943 6.58334 10.0092L6.62834 10.0097L6.62665 10.0103ZM8.49865 9.06249C8.68034 8.39199 9.47347 9.61374 8.79678 9.15249C8.71634 9.09174 8.58303 9.04281 8.49865 9.06249ZM8.53409 8.73737C8.79678 8.54218 8.67359 8.84706 8.53409 8.73737ZM8.86765 8.74299C8.89184 8.43474 9.63153 8.91174 8.98972 8.85381L8.86765 8.74299ZM9.32328 8.55962C9.49034 8.36443 9.37165 8.73231 9.32328 8.55962ZM9.44028 8.48087C9.71815 8.14731 11.0113 8.26712 10.059 8.44824C9.8059 8.25699 9.61072 8.56074 9.44028 8.48087ZM11.1278 8.22043C11.967 8.54387 11.0862 7.30918 11.1278 8.22043ZM11.607 8.21762C11.7814 7.75862 12.2877 8.03312 11.6886 8.12537C11.7015 8.17431 11.6706 8.36274 11.607 8.21762ZM7.74097 10.6516C8.26409 10.3309 7.18578 10.3737 7.74097 10.6516ZM8.12797 10.7641C8.31134 10.5689 7.73422 10.6853 8.12797 10.7641ZM6.98834 9.94562C7.28647 9.71499 6.63397 9.85843 6.98834 9.94562ZM22.4402 19.6122C22.4487 19.3456 22.2118 19.732 22.4402 19.6122ZM20.8708 18.5406C20.9158 18.2341 20.6683 18.5671 20.8708 18.5406ZM22.8733 19.7162C23.2913 19.7179 24.1401 19.5869 23.2305 19.5869C23.0877 19.6094 22.398 19.6037 22.8733 19.7162ZM8.4694 10.5661C8.80803 10.5436 8.99815 10.1931 8.40359 10.2128C7.48109 10.1172 9.21697 10.5289 8.29109 10.4108C8.16622 10.4935 8.46772 10.5886 8.47503 10.5655L8.4694 10.5661ZM8.76753 10.7168C8.73209 10.4997 8.6629 10.8321 8.76753 10.7168ZM9.1219 9.77406C9.26815 9.59181 8.9194 9.72512 9.1219 9.77406ZM7.9969 7.89306C8.60103 7.68774 9.42678 7.45712 9.71253 7.99431C9.42228 7.64556 9.59553 7.30131 9.87003 7.81206C10.2582 8.32843 10.4517 7.57693 10.1997 7.40368C10.4865 7.76031 10.8128 7.92906 10.392 7.42618C10.8505 6.87493 9.47515 7.49818 9.1624 7.49199C9.01222 7.55949 7.6099 7.84974 7.99803 7.89306H7.9969ZM8.35128 7.21524C8.69553 6.95537 9.54265 7.36993 8.99928 6.95649C8.94584 6.90981 7.80959 7.26981 8.35128 7.21524ZM9.60678 7.26699C10.0095 7.27712 9.4324 6.72531 9.91278 6.97562C9.83403 6.71799 9.35365 6.67018 9.11853 6.56668C8.98578 6.80181 9.38853 7.26981 9.60622 7.26699H9.60678ZM8.57178 6.12737C8.71128 5.93837 8.32709 6.22299 8.57178 6.12737ZM9.08253 6.24999C9.73222 6.16393 8.91715 5.97043 8.95147 6.24324L9.08253 6.24999ZM8.12403 5.50187C7.66672 4.90449 8.98465 5.60199 8.51947 4.97706C8.12797 4.66599 7.75278 5.32806 8.12403 5.50187ZM13.9932 8.66312C14.203 8.29187 13.1269 8.16249 13.8525 8.53149C13.9189 8.55399 13.9043 8.68899 13.9932 8.66312Z" fill="black"/>
</g>
</g>
<defs>
<clipPath id="clip0_26_772">
<rect x="6" y="4" width="18" height="18" rx="5" fill="white"/>
</clipPath>
<clipPath id="clip1_26_772">
<rect width="18" height="18" fill="white" transform="translate(6 4)"/>
</clipPath>
</defs>
</svg>
