<svg width="76" height="26" viewBox="0 0 76 26" fill="none" xmlns="http://www.w3.org/2000/svg">
<rect width="76" height="26" rx="8" fill="#3C3C3B"/>
<line x1="26.5" y1="19.5" x2="26.5" y2="6.5" stroke="#5C5B58" stroke-linecap="round"/>
<path d="M33.5217 10.6364L34.8736 13.2108L36.2591 10.6364H38.354L36.2207 14.3182L38.4116 18H36.3262L34.8736 15.4544L33.445 18H31.3356L33.5217 14.3182L31.4123 10.6364H33.5217ZM39.5669 18V10.6364H41.5133V11.9355H41.5996C41.753 11.5041 42.0087 11.1637 42.3667 10.9144C42.7246 10.6651 43.1529 10.5405 43.6515 10.5405C44.1564 10.5405 44.5863 10.6667 44.9411 10.9192C45.2958 11.1685 45.5323 11.5073 45.6506 11.9355H45.7273C45.8775 11.5137 46.1491 11.1765 46.5423 10.924C46.9386 10.6683 47.4068 10.5405 47.9469 10.5405C48.6341 10.5405 49.1918 10.7594 49.62 11.1973C50.0515 11.6319 50.2672 12.2488 50.2672 13.0478V18H48.2298V13.4505C48.2298 13.0414 48.1211 12.7346 47.9038 12.53C47.6864 12.3255 47.4148 12.2232 47.0888 12.2232C46.718 12.2232 46.4288 12.3414 46.2211 12.5779C46.0133 12.8113 45.9094 13.1197 45.9094 13.5032V18H43.9295V13.4073C43.9295 13.0462 43.8256 12.7585 43.6179 12.5444C43.4134 12.3303 43.1433 12.2232 42.8077 12.2232C42.5808 12.2232 42.3762 12.2807 42.1941 12.3958C42.0151 12.5076 41.8729 12.6658 41.7674 12.8704C41.6619 13.0717 41.6092 13.3082 41.6092 13.5799V18H39.5669ZM51.8804 18V10.6364H53.9227V18H51.8804ZM52.9063 9.68714C52.6027 9.68714 52.3422 9.58647 52.1249 9.38512C51.9108 9.18057 51.8037 8.93608 51.8037 8.65163C51.8037 8.37038 51.9108 8.12908 52.1249 7.92773C52.3422 7.72319 52.6027 7.62092 52.9063 7.62092C53.21 7.62092 53.4688 7.72319 53.683 7.92773C53.9003 8.12908 54.009 8.37038 54.009 8.65163C54.009 8.93608 53.9003 9.18057 53.683 9.38512C53.4688 9.58647 53.21 9.68714 52.9063 9.68714ZM57.6009 13.7429V18H55.5586V10.6364H57.505V11.9355H57.5913C57.7543 11.5073 58.0276 11.1685 58.4111 10.9192C58.7946 10.6667 59.2596 10.5405 59.8062 10.5405C60.3175 10.5405 60.7634 10.6523 61.1437 10.8761C61.524 11.0998 61.8196 11.4194 62.0306 11.8349C62.2415 12.2472 62.347 12.7393 62.347 13.3114V18H60.3047V13.6758C60.3079 13.2251 60.1929 12.8736 59.9596 12.6211C59.7263 12.3654 59.4051 12.2376 58.996 12.2376C58.7211 12.2376 58.4782 12.2967 58.2673 12.415C58.0595 12.5332 57.8965 12.7058 57.7783 12.9327C57.6632 13.1564 57.6041 13.4265 57.6009 13.7429ZM66.67 18.1199C66.1107 18.1199 65.6041 17.976 65.1503 17.6884C64.6997 17.3975 64.3417 16.9709 64.0764 16.4084C63.8144 15.8427 63.6833 15.1491 63.6833 14.3278C63.6833 13.484 63.8192 12.7825 64.0908 12.2232C64.3625 11.6607 64.7236 11.2404 65.1743 10.9624C65.6281 10.6811 66.1251 10.5405 66.6652 10.5405C67.0775 10.5405 67.4211 10.6108 67.6959 10.7514C67.974 10.8888 68.1977 11.0614 68.3671 11.2692C68.5397 11.4737 68.6707 11.6751 68.7602 11.8732H68.8225V8.18182H70.86V18H68.8465V16.8207H68.7602C68.6643 17.0252 68.5285 17.2282 68.3527 17.4295C68.1801 17.6277 67.9548 17.7923 67.6768 17.9233C67.4019 18.0543 67.0663 18.1199 66.67 18.1199ZM67.3172 16.4947C67.6464 16.4947 67.9244 16.4052 68.1514 16.2262C68.3815 16.044 68.5573 15.79 68.6787 15.464C68.8034 15.138 68.8657 14.756 68.8657 14.3182C68.8657 13.8803 68.805 13.5 68.6835 13.1772C68.5621 12.8544 68.3863 12.6051 68.1562 12.4293C67.926 12.2536 67.6464 12.1657 67.3172 12.1657C66.9816 12.1657 66.6988 12.2567 66.4687 12.4389C66.2385 12.6211 66.0644 12.8736 65.9461 13.1964C65.8279 13.5192 65.7687 13.8931 65.7687 14.3182C65.7687 14.7464 65.8279 15.1252 65.9461 15.4544C66.0676 15.7804 66.2417 16.036 66.4687 16.2214C66.6988 16.4036 66.9816 16.4947 67.3172 16.4947Z" fill="white"/>
<g clip-path="url(#clip0_26_778)">
<path d="M17.9982 4H8.00175C5.79164 4 4 5.79165 4 8.00176V17.9982C4 20.2083 5.79164 22 8.00175 22H17.9982C20.2083 22 22 20.2083 22 17.9982V8.00176C22 5.79165 20.2083 4 17.9982 4Z" fill="url(#paint0_linear_26_778)"/>
<path d="M8.56057 10.9517C11.8453 11.355 14.1888 14.3366 13.8066 17.6213C13.8066 17.6318 13.8066 17.645 13.8039 17.6556C13.8039 17.6661 13.8039 17.674 13.7987 17.6846C13.7301 18.2276 13.5904 18.7443 13.3927 19.2267C12.0852 19.0659 10.9279 18.4992 10.0315 17.6635C10.0974 17.5027 10.1555 17.3366 10.2055 17.1679C10.3057 16.841 10.3769 16.4983 10.4217 16.1477C10.4744 15.7206 10.4797 15.2988 10.4428 14.8875C10.311 13.3797 9.61241 12.0036 8.54211 11.007C8.54738 10.9886 8.55529 10.9728 8.5632 10.9544L8.56057 10.9517Z" fill="url(#paint1_linear_26_778)"/>
<path d="M17.4393 15.0484C14.1546 14.6451 11.8111 11.6635 12.1933 8.3788C12.1933 8.36825 12.1933 8.35507 12.1959 8.34452C12.1959 8.33398 12.1959 8.32607 12.2012 8.31553C12.2697 7.77247 12.4095 7.25578 12.6072 6.77335C13.9147 6.93416 15.072 7.50094 15.9683 8.33662C15.9024 8.49743 15.8444 8.66351 15.7944 8.83222C15.6942 9.15911 15.623 9.50182 15.5781 9.85243C15.5255 10.2795 15.5202 10.7013 15.5571 11.1125C15.6889 12.6204 16.3875 13.9965 17.4578 14.993C17.4525 15.0115 17.4446 15.0273 17.4367 15.0458L17.4393 15.0484Z" fill="url(#paint2_linear_26_778)"/>
<path d="M17.4393 15.0484C14.1546 14.6451 11.8111 11.6636 12.1933 8.37881C12.9235 9.6521 14.1098 10.646 15.5571 11.1152C15.9182 11.2338 16.2978 11.3182 16.688 11.3657C17.0439 11.4078 17.3972 11.421 17.7425 11.4026C17.9771 11.3894 18.2064 11.363 18.4358 11.3261C19.0368 12.4017 19.3137 13.6697 19.1555 14.9878C19.1555 14.9983 19.1555 15.0062 19.1502 15.0168C18.6256 15.1038 18.0826 15.1196 17.529 15.0616C17.4921 15.0563 17.4631 15.0537 17.4393 15.051V15.0484Z" fill="white"/>
<path d="M8.56053 10.9517C11.8452 11.355 14.1888 14.3366 13.8065 17.6213C13.0763 16.3481 11.89 15.3542 10.4428 14.885C10.0816 14.7663 9.70201 14.682 9.31185 14.6345C8.95596 14.5923 8.60271 14.5791 8.25737 14.5976C8.02274 14.6108 7.7934 14.6372 7.56405 14.6741C6.96299 13.5985 6.6862 12.3305 6.84436 11.0124C6.84436 11.0018 6.84436 10.9939 6.84964 10.9833C7.37424 10.8964 7.9173 10.8806 8.4709 10.9385C8.50254 10.9412 8.52889 10.9438 8.56053 10.9491V10.9517Z" fill="white"/>
</g>
<defs>
<linearGradient id="paint0_linear_26_778" x1="22.2821" y1="3.21177" x2="6.23547" y2="20.1309" gradientUnits="userSpaceOnUse">
<stop offset="0.01" stop-color="#E9913E"/>
<stop offset="1" stop-color="#F20000"/>
</linearGradient>
<linearGradient id="paint1_linear_26_778" x1="8.52629" y1="19.6854" x2="12.3962" y2="12.4227" gradientUnits="userSpaceOnUse">
<stop offset="0.19" stop-color="white"/>
<stop offset="0.4" stop-color="#FDFCFC" stop-opacity="0.99"/>
<stop offset="0.51" stop-color="#F9F4F5" stop-opacity="0.97"/>
<stop offset="0.6" stop-color="#F3E7E9" stop-opacity="0.93"/>
<stop offset="0.67" stop-color="#E9D4D7" stop-opacity="0.88"/>
<stop offset="0.74" stop-color="#DDBBC0" stop-opacity="0.81"/>
<stop offset="0.81" stop-color="#CE9CA4" stop-opacity="0.73"/>
<stop offset="0.87" stop-color="#BC7883" stop-opacity="0.63"/>
<stop offset="0.92" stop-color="#A84E5C" stop-opacity="0.51"/>
<stop offset="0.97" stop-color="#911F31" stop-opacity="0.38"/>
<stop offset="1" stop-color="#830317" stop-opacity="0.3"/>
</linearGradient>
<linearGradient id="paint2_linear_26_778" x1="18.7785" y1="1.01852" x2="12.9446" y2="16.385" gradientUnits="userSpaceOnUse">
<stop offset="0.19" stop-color="white"/>
<stop offset="0.4" stop-color="#FDFCFC" stop-opacity="0.99"/>
<stop offset="0.51" stop-color="#F9F4F5" stop-opacity="0.97"/>
<stop offset="0.6" stop-color="#F3E7E9" stop-opacity="0.93"/>
<stop offset="0.67" stop-color="#E9D4D7" stop-opacity="0.88"/>
<stop offset="0.74" stop-color="#DDBBC0" stop-opacity="0.81"/>
<stop offset="0.81" stop-color="#CE9CA4" stop-opacity="0.73"/>
<stop offset="0.87" stop-color="#BC7883" stop-opacity="0.63"/>
<stop offset="0.92" stop-color="#A84E5C" stop-opacity="0.51"/>
<stop offset="0.97" stop-color="#911F31" stop-opacity="0.38"/>
<stop offset="1" stop-color="#830317" stop-opacity="0.3"/>
</linearGradient>
<clipPath id="clip0_26_778">
<rect x="4" y="4" width="18" height="18" rx="5" fill="white"/>
</clipPath>
</defs>
</svg>
