<svg width="76" height="26" viewBox="0 0 76 26" fill="none" xmlns="http://www.w3.org/2000/svg">
<rect width="76" height="26" rx="8" fill="#3C3C3B"/>
<line x1="26.5" y1="19.5" x2="26.5" y2="6.5" stroke="#5C5B58" stroke-linecap="round"/>
<path d="M31.8533 18V8.18182H38.354V9.89329H33.9292V12.2328H37.9226V13.9442H33.9292V18H31.8533ZM39.712 18V10.6364H41.7542V18H39.712ZM40.7379 9.68714C40.4343 9.68714 40.1738 9.58647 39.9565 9.38512C39.7423 9.18057 39.6353 8.93608 39.6353 8.65163C39.6353 8.37038 39.7423 8.12908 39.9565 7.92773C40.1738 7.72319 40.4343 7.62092 40.7379 7.62092C41.0415 7.62092 41.3004 7.72319 41.5145 7.92773C41.7318 8.12908 41.8405 8.37038 41.8405 8.65163C41.8405 8.93608 41.7318 9.18057 41.5145 9.38512C41.3004 9.58647 41.0415 9.68714 40.7379 9.68714ZM46.7077 20.9148C46.0461 20.9148 45.4788 20.8237 45.0058 20.6415C44.536 20.4625 44.162 20.218 43.884 19.908C43.6059 19.598 43.4253 19.2496 43.3422 18.8629L45.2311 18.6088C45.2886 18.7559 45.3797 18.8933 45.5044 19.0211C45.629 19.149 45.7936 19.2512 45.9981 19.3279C46.2059 19.4078 46.4584 19.4478 46.7556 19.4478C47.1998 19.4478 47.5658 19.3391 47.8534 19.1218C48.1443 18.9077 48.2897 18.5481 48.2897 18.0431V16.696H48.2034C48.1139 16.9006 47.9797 17.0939 47.8007 17.2761C47.6217 17.4583 47.3916 17.6069 47.1104 17.7219C46.8291 17.837 46.4935 17.8945 46.1036 17.8945C45.5507 17.8945 45.0473 17.7667 44.5935 17.511C44.1428 17.2521 43.7833 16.8574 43.5148 16.3269C43.2496 15.7931 43.1169 15.1188 43.1169 14.3038C43.1169 13.4696 43.2528 12.7729 43.5244 12.2136C43.7961 11.6543 44.1572 11.2356 44.6079 10.9576C45.0617 10.6795 45.5587 10.5405 46.0988 10.5405C46.5111 10.5405 46.8563 10.6108 47.1343 10.7514C47.4124 10.8888 47.6361 11.0614 47.8055 11.2692C47.9781 11.4737 48.1107 11.6751 48.2034 11.8732H48.2801V10.6364H50.308V18.0719C50.308 18.6983 50.1546 19.2225 49.8477 19.6444C49.5409 20.0662 49.1159 20.3826 48.5725 20.5936C48.0324 20.8077 47.4108 20.9148 46.7077 20.9148ZM46.7508 16.3604C47.08 16.3604 47.358 16.2789 47.585 16.1159C47.8151 15.9498 47.9909 15.7132 48.1123 15.4064C48.2369 15.0964 48.2993 14.7257 48.2993 14.2942C48.2993 13.8627 48.2385 13.4888 48.1171 13.1724C47.9957 12.8528 47.8199 12.6051 47.5898 12.4293C47.3596 12.2536 47.08 12.1657 46.7508 12.1657C46.4152 12.1657 46.1324 12.2567 45.9023 12.4389C45.6721 12.6179 45.498 12.8672 45.3797 13.1868C45.2615 13.5064 45.2023 13.8755 45.2023 14.2942C45.2023 14.7193 45.2615 15.0868 45.3797 15.3968C45.5012 15.7037 45.6753 15.9418 45.9023 16.1112C46.1324 16.2773 46.4152 16.3604 46.7508 16.3604ZM51.9331 18V10.6364H53.8795V11.9355H53.9658C54.1192 11.5041 54.3749 11.1637 54.7329 10.9144C55.0908 10.6651 55.5191 10.5405 56.0177 10.5405C56.5226 10.5405 56.9525 10.6667 57.3073 10.9192C57.662 11.1685 57.8985 11.5073 58.0168 11.9355H58.0935C58.2437 11.5137 58.5154 11.1765 58.9085 10.924C59.3048 10.6683 59.773 10.5405 60.3131 10.5405C61.0003 10.5405 61.558 10.7594 61.9862 11.1973C62.4177 11.6319 62.6334 12.2488 62.6334 13.0478V18H60.596V13.4505C60.596 13.0414 60.4873 12.7346 60.27 12.53C60.0526 12.3255 59.781 12.2232 59.455 12.2232C59.0843 12.2232 58.795 12.3414 58.5873 12.5779C58.3795 12.8113 58.2757 13.1197 58.2757 13.5032V18H56.2957V13.4073C56.2957 13.0462 56.1919 12.7585 55.9841 12.5444C55.7796 12.3303 55.5095 12.2232 55.1739 12.2232C54.947 12.2232 54.7425 12.2807 54.5603 12.3958C54.3813 12.5076 54.2391 12.6658 54.1336 12.8704C54.0281 13.0717 53.9754 13.3082 53.9754 13.5799V18H51.9331ZM66.3464 18.139C65.8766 18.139 65.4579 18.0575 65.0904 17.8945C64.7228 17.7283 64.432 17.4838 64.2179 17.161C64.0069 16.835 63.9015 16.4292 63.9015 15.9434C63.9015 15.5343 63.9766 15.1907 64.1268 14.9126C64.277 14.6346 64.4815 14.4109 64.7404 14.2415C64.9993 14.0721 65.2933 13.9442 65.6225 13.858C65.9549 13.7717 66.3033 13.7109 66.6676 13.6758C67.0959 13.631 67.4411 13.5895 67.7031 13.5511C67.9652 13.5096 68.1554 13.4489 68.2736 13.369C68.3919 13.2891 68.451 13.1708 68.451 13.0142V12.9854C68.451 12.6818 68.3551 12.4469 68.1634 12.2807C67.9748 12.1145 67.7063 12.0314 67.358 12.0314C66.9904 12.0314 66.698 12.1129 66.4806 12.2759C66.2633 12.4357 66.1195 12.6371 66.0492 12.88L64.1603 12.7266C64.2562 12.2791 64.4448 11.8924 64.726 11.5664C65.0073 11.2372 65.37 10.9847 65.8143 10.8089C66.2617 10.63 66.7795 10.5405 67.3675 10.5405C67.7766 10.5405 68.1681 10.5884 68.5421 10.6843C68.9192 10.7802 69.2532 10.9288 69.544 11.1301C69.8381 11.3315 70.0698 11.5904 70.2392 11.9068C70.4086 12.22 70.4933 12.5955 70.4933 13.0334V18H68.5565V16.9789H68.4989C68.3807 17.209 68.2225 17.4119 68.0243 17.5877C67.8262 17.7603 67.5881 17.8961 67.31 17.9952C67.032 18.0911 66.7108 18.139 66.3464 18.139ZM66.9313 16.7296C67.2317 16.7296 67.497 16.6705 67.7271 16.5522C67.9572 16.4308 68.1378 16.2678 68.2688 16.0632C68.3999 15.8587 68.4654 15.627 68.4654 15.3681V14.5866C68.4015 14.6282 68.3136 14.6665 68.2017 14.7017C68.093 14.7337 67.97 14.764 67.8326 14.7928C67.6951 14.8184 67.5577 14.8423 67.4203 14.8647C67.2828 14.8839 67.1582 14.9015 67.0463 14.9174C66.8066 14.9526 66.5973 15.0085 66.4183 15.0852C66.2393 15.1619 66.1003 15.2658 66.0012 15.3968C65.9022 15.5247 65.8526 15.6845 65.8526 15.8762C65.8526 16.1543 65.9533 16.3668 66.1547 16.5138C66.3592 16.6577 66.6181 16.7296 66.9313 16.7296Z" fill="white"/>
<g clip-path="url(#clip0_26_739)">
<path d="M10.0023 22C10.798 22 11.561 21.6839 12.1236 21.1213C12.6862 20.5587 13.0023 19.7956 13.0023 19V16H10.0023C9.20667 16 8.44361 16.3161 7.881 16.8787C7.31839 17.4413 7.00232 18.2044 7.00232 19C7.00232 19.7956 7.31839 20.5587 7.881 21.1213C8.44361 21.6839 9.20667 22 10.0023 22Z" fill="#0ACF83"/>
<path d="M7.00232 13C7.00232 12.2044 7.31839 11.4413 7.881 10.8787C8.44361 10.3161 9.20667 10 10.0023 10H13.0023V16H10.0023C9.20667 16 8.44361 15.6839 7.881 15.1213C7.31839 14.5587 7.00232 13.7956 7.00232 13Z" fill="#A259FF"/>
<path d="M7.00232 7C7.00232 6.20476 7.31807 5.44205 7.88017 4.87951C8.44227 4.31697 9.20473 4.00062 9.99998 4H13V10H10.0023C9.20667 10 8.44361 9.68393 7.881 9.12132C7.31839 8.55871 7.00232 7.79565 7.00232 7Z" fill="#F24E1E"/>
<path d="M13.0023 4H16.0023C16.798 4 17.561 4.31607 18.1236 4.87868C18.6862 5.44129 19.0023 6.20435 19.0023 7C19.0023 7.79565 18.6862 8.55871 18.1236 9.12132C17.561 9.68393 16.798 10 16.0023 10H13.0023V4Z" fill="#FF7262"/>
<path d="M19.0023 13C19.0023 13.7956 18.6862 14.5587 18.1236 15.1213C17.561 15.6839 16.798 16 16.0023 16C15.2067 16 14.4436 15.6839 13.881 15.1213C13.3184 14.5587 13.0023 13.7956 13.0023 13C13.0023 12.2044 13.3184 11.4413 13.881 10.8787C14.4436 10.3161 15.2067 10 16.0023 10C16.798 10 17.561 10.3161 18.1236 10.8787C18.6862 11.4413 19.0023 12.2044 19.0023 13Z" fill="#1ABCFE"/>
</g>
<defs>
<clipPath id="clip0_26_739">
<rect x="4" y="4" width="18" height="18" rx="5" fill="white"/>
</clipPath>
</defs>
</svg>
