<svg width="90" height="26" viewBox="0 0 90 26" fill="none" xmlns="http://www.w3.org/2000/svg">
<rect width="90" height="26" rx="8" fill="#3C3C3B"/>
<line x1="26.5" y1="19.5" x2="26.5" y2="6.5" stroke="#5C5B58" stroke-linecap="round"/>
<g clip-path="url(#clip0_26_797)">
<path d="M31.8533 18V8.18182H38.4691V9.89329H33.9292V12.2328H38.1287V13.9442H33.9292V16.2885H38.4883V18H31.8533ZM42.1234 8.18182V18H40.0811V8.18182H42.1234ZM47.1151 18.1438C46.3577 18.1438 45.7057 17.9904 45.1592 17.6836C44.6159 17.3736 44.1972 16.9357 43.9031 16.37C43.6091 15.8011 43.4621 15.1284 43.4621 14.3517C43.4621 13.5943 43.6091 12.9295 43.9031 12.3574C44.1972 11.7853 44.6111 11.3395 45.1448 11.0199C45.6817 10.7003 46.3113 10.5405 47.0336 10.5405C47.5194 10.5405 47.9717 10.6188 48.3904 10.7754C48.8122 10.9288 49.1798 11.1605 49.493 11.4705C49.8094 11.7805 50.0555 12.1705 50.2313 12.6403C50.407 13.1069 50.4949 13.6534 50.4949 14.2798V14.8407H44.2771V13.5751H48.5725C48.5725 13.2811 48.5086 13.0206 48.3808 12.7937C48.2529 12.5668 48.0756 12.3894 47.8486 12.2615C47.6249 12.1305 47.3644 12.065 47.0672 12.065C46.7572 12.065 46.4823 12.1369 46.2426 12.2807C46.0061 12.4213 45.8208 12.6115 45.6865 12.8512C45.5523 13.0877 45.4836 13.3514 45.4804 13.6422V14.8455C45.4804 15.2099 45.5475 15.5247 45.6817 15.79C45.8192 16.0552 46.0125 16.2598 46.2618 16.4036C46.5111 16.5474 46.8067 16.6193 47.1487 16.6193C47.3756 16.6193 47.5834 16.5874 47.7719 16.5234C47.9605 16.4595 48.1219 16.3636 48.2561 16.2358C48.3904 16.108 48.4926 15.9513 48.5629 15.766L50.4518 15.8906C50.3559 16.3445 50.1594 16.7408 49.8621 17.0795C49.5681 17.4151 49.1878 17.6772 48.7211 17.8658C48.2577 18.0511 47.7224 18.1438 47.1151 18.1438ZM51.8277 18V10.6364H53.7741V11.9355H53.8604C54.0138 11.5041 54.2694 11.1637 54.6274 10.9144C54.9854 10.6651 55.4136 10.5405 55.9122 10.5405C56.4172 10.5405 56.847 10.6667 57.2018 10.9192C57.5566 11.1685 57.7931 11.5073 57.9113 11.9355H57.988C58.1382 11.5137 58.4099 11.1765 58.803 10.924C59.1993 10.6683 59.6675 10.5405 60.2077 10.5405C60.8948 10.5405 61.4525 10.7594 61.8808 11.1973C62.3122 11.6319 62.528 12.2488 62.528 13.0478V18H60.4905V13.4505C60.4905 13.0414 60.3818 12.7346 60.1645 12.53C59.9472 12.3255 59.6755 12.2232 59.3495 12.2232C58.9788 12.2232 58.6895 12.3414 58.4818 12.5779C58.2741 12.8113 58.1702 13.1197 58.1702 13.5032V18H56.1903V13.4073C56.1903 13.0462 56.0864 12.7585 55.8786 12.5444C55.6741 12.3303 55.404 12.2232 55.0684 12.2232C54.8415 12.2232 54.637 12.2807 54.4548 12.3958C54.2758 12.5076 54.1336 12.6658 54.0281 12.8704C53.9227 13.0717 53.8699 13.3082 53.8699 13.5799V18H51.8277ZM67.497 18.1438C66.7395 18.1438 66.0875 17.9904 65.541 17.6836C64.9977 17.3736 64.579 16.9357 64.285 16.37C63.9909 15.8011 63.8439 15.1284 63.8439 14.3517C63.8439 13.5943 63.9909 12.9295 64.285 12.3574C64.579 11.7853 64.9929 11.3395 65.5266 11.0199C66.0636 10.7003 66.6932 10.5405 67.4155 10.5405C67.9013 10.5405 68.3535 10.6188 68.7722 10.7754C69.1941 10.9288 69.5616 11.1605 69.8748 11.4705C70.1912 11.7805 70.4373 12.1705 70.6131 12.6403C70.7889 13.1069 70.8768 13.6534 70.8768 14.2798V14.8407H64.6589V13.5751H68.9544C68.9544 13.2811 68.8904 13.0206 68.7626 12.7937C68.6348 12.5668 68.4574 12.3894 68.2305 12.2615C68.0067 12.1305 67.7463 12.065 67.449 12.065C67.139 12.065 66.8642 12.1369 66.6245 12.2807C66.388 12.4213 66.2026 12.6115 66.0684 12.8512C65.9341 13.0877 65.8654 13.3514 65.8622 13.6422V14.8455C65.8622 15.2099 65.9293 15.5247 66.0636 15.79C66.201 16.0552 66.3944 16.2598 66.6436 16.4036C66.8929 16.5474 67.1886 16.6193 67.5305 16.6193C67.7575 16.6193 67.9652 16.5874 68.1538 16.5234C68.3423 16.4595 68.5037 16.3636 68.638 16.2358C68.7722 16.108 68.8745 15.9513 68.9448 15.766L70.8336 15.8906C70.7377 16.3445 70.5412 16.7408 70.244 17.0795C69.9499 17.4151 69.5696 17.6772 69.103 17.8658C68.6396 18.0511 68.1042 18.1438 67.497 18.1438ZM74.2518 13.7429V18H72.2095V10.6364H74.1559V11.9355H74.2422C74.4052 11.5073 74.6784 11.1685 75.062 10.9192C75.4455 10.6667 75.9105 10.5405 76.457 10.5405C76.9684 10.5405 77.4142 10.6523 77.7946 10.8761C78.1749 11.0998 78.4705 11.4194 78.6815 11.8349C78.8924 12.2472 78.9979 12.7393 78.9979 13.3114V18H76.9556V13.6758C76.9588 13.2251 76.8438 12.8736 76.6104 12.6211C76.3771 12.3654 76.0559 12.2376 75.6468 12.2376C75.372 12.2376 75.1291 12.2967 74.9181 12.415C74.7104 12.5332 74.5474 12.7058 74.4292 12.9327C74.3141 13.1564 74.255 13.4265 74.2518 13.7429ZM84.5242 10.6364V12.1705H80.0897V10.6364H84.5242ZM81.0965 8.87216H83.1387V15.7372C83.1387 15.9258 83.1675 16.0728 83.225 16.1783C83.2825 16.2805 83.3624 16.3525 83.4647 16.394C83.5702 16.4355 83.6916 16.4563 83.8291 16.4563C83.9249 16.4563 84.0208 16.4483 84.1167 16.4324C84.2126 16.4132 84.2861 16.3988 84.3372 16.3892L84.6584 17.9089C84.5562 17.9409 84.4123 17.9776 84.227 18.0192C84.0416 18.0639 83.8163 18.0911 83.551 18.1007C83.0588 18.1199 82.6274 18.0543 82.2566 17.9041C81.8891 17.7539 81.603 17.5206 81.3985 17.2042C81.1939 16.8878 81.0933 16.4883 81.0965 16.0057V8.87216Z" fill="white"/>
</g>
<g clip-path="url(#clip1_26_797)">
<g clip-path="url(#clip2_26_797)">
<path d="M19.1585 11.4239L12.9723 14.6958V16.7716L19.1585 13.4998V11.4239ZM18.6103 7.42866L12.9723 10.4106V12.4864L20.2938 8.61419H18.6103V7.42866ZM13.0114 4.00189L4.98361 8.22002L4.94446 16.7187L12.9331 20.9991L20.9609 16.7811L21 8.28256L13.0114 4.00189ZM13.0668 6.017L19.0939 9.24658L19.0644 15.6587L13.0076 18.8409L6.98042 15.6115L7.00995 9.19951L13.0668 6.017Z" fill="#409EFF"/>
</g>
</g>
<defs>
<clipPath id="clip0_26_797">
<rect width="59" height="26" fill="white" transform="translate(31)"/>
</clipPath>
<clipPath id="clip1_26_797">
<rect x="4" y="4" width="17" height="17" rx="5" fill="white"/>
</clipPath>
<clipPath id="clip2_26_797">
<rect width="16.0556" height="17" fill="white" transform="translate(4.94446 4)"/>
</clipPath>
</defs>
</svg>
