<svg width="86" height="26" viewBox="0 0 86 26" fill="none" xmlns="http://www.w3.org/2000/svg">
<rect width="86" height="26" rx="8" fill="#3C3C3B"/>
<line x1="26.5" y1="19.5" x2="26.5" y2="6.5" stroke="#5C5B58" stroke-linecap="round"/>
<g clip-path="url(#clip0_26_803)">
<path d="M40.0655 8.18182V18H38.2725L34.0011 11.8205H33.9292V18H31.8533V8.18182H33.6751L37.913 14.3565H37.9993V8.18182H40.0655ZM45.0693 18.1438C44.3246 18.1438 43.6806 17.9856 43.1373 17.6692C42.5972 17.3496 42.1801 16.9054 41.8861 16.3365C41.592 15.7644 41.445 15.1012 41.445 14.3469C41.445 13.5863 41.592 12.9215 41.8861 12.3526C42.1801 11.7805 42.5972 11.3363 43.1373 11.0199C43.6806 10.7003 44.3246 10.5405 45.0693 10.5405C45.814 10.5405 46.4564 10.7003 46.9965 11.0199C47.5398 11.3363 47.9585 11.7805 48.2525 12.3526C48.5466 12.9215 48.6936 13.5863 48.6936 14.3469C48.6936 15.1012 48.5466 15.7644 48.2525 16.3365C47.9585 16.9054 47.5398 17.3496 46.9965 17.6692C46.4564 17.9856 45.814 18.1438 45.0693 18.1438ZM45.0789 16.5618C45.4177 16.5618 45.7005 16.4659 45.9274 16.2741C46.1543 16.0792 46.3253 15.8139 46.4404 15.4783C46.5586 15.1428 46.6178 14.7608 46.6178 14.3326C46.6178 13.9043 46.5586 13.5224 46.4404 13.1868C46.3253 12.8512 46.1543 12.5859 45.9274 12.391C45.7005 12.196 45.4177 12.0985 45.0789 12.0985C44.7369 12.0985 44.4493 12.196 44.216 12.391C43.9858 12.5859 43.8117 12.8512 43.6934 13.1868C43.5783 13.5224 43.5208 13.9043 43.5208 14.3326C43.5208 14.7608 43.5783 15.1428 43.6934 15.4783C43.8117 15.8139 43.9858 16.0792 44.216 16.2741C44.4493 16.4659 44.7369 16.5618 45.0789 16.5618ZM52.735 18.1199C52.1756 18.1199 51.6691 17.976 51.2152 17.6884C50.7646 17.3975 50.4066 16.9709 50.1414 16.4084C49.8793 15.8427 49.7483 15.1491 49.7483 14.3278C49.7483 13.484 49.8841 12.7825 50.1558 12.2232C50.4274 11.6607 50.7886 11.2404 51.2392 10.9624C51.693 10.6811 52.19 10.5405 52.7302 10.5405C53.1424 10.5405 53.486 10.6108 53.7609 10.7514C54.0389 10.8888 54.2627 11.0614 54.432 11.2692C54.6046 11.4737 54.7357 11.6751 54.8252 11.8732H54.8875V8.18182H56.9249V18H54.9114V16.8207H54.8252C54.7293 17.0252 54.5934 17.2282 54.4177 17.4295C54.2451 17.6277 54.0198 17.7923 53.7417 17.9233C53.4668 18.0543 53.1313 18.1199 52.735 18.1199ZM53.3821 16.4947C53.7113 16.4947 53.9894 16.4052 54.2163 16.2262C54.4464 16.044 54.6222 15.79 54.7437 15.464C54.8683 15.138 54.9306 14.756 54.9306 14.3182C54.9306 13.8803 54.8699 13.5 54.7484 13.1772C54.627 12.8544 54.4512 12.6051 54.2211 12.4293C53.991 12.2536 53.7113 12.1657 53.3821 12.1657C53.0466 12.1657 52.7637 12.2567 52.5336 12.4389C52.3035 12.6211 52.1293 12.8736 52.0111 13.1964C51.8928 13.5192 51.8337 13.8931 51.8337 14.3182C51.8337 14.7464 51.8928 15.1252 52.0111 15.4544C52.1325 15.7804 52.3067 16.036 52.5336 16.2214C52.7637 16.4036 53.0466 16.4947 53.3821 16.4947ZM61.9599 18.1438C61.2024 18.1438 60.5504 17.9904 60.0039 17.6836C59.4606 17.3736 59.0419 16.9357 58.7479 16.37C58.4538 15.8011 58.3068 15.1284 58.3068 14.3517C58.3068 13.5943 58.4538 12.9295 58.7479 12.3574C59.0419 11.7853 59.4558 11.3395 59.9895 11.0199C60.5265 10.7003 61.1561 10.5405 61.8784 10.5405C62.3642 10.5405 62.8164 10.6188 63.2351 10.7754C63.657 10.9288 64.0245 11.1605 64.3377 11.4705C64.6541 11.7805 64.9002 12.1705 65.076 12.6403C65.2518 13.1069 65.3397 13.6534 65.3397 14.2798V14.8407H59.1218V13.5751H63.4173C63.4173 13.2811 63.3533 13.0206 63.2255 12.7937C63.0977 12.5668 62.9203 12.3894 62.6934 12.2615C62.4696 12.1305 62.2092 12.065 61.9119 12.065C61.6019 12.065 61.3271 12.1369 61.0874 12.2807C60.8509 12.4213 60.6655 12.6115 60.5312 12.8512C60.397 13.0877 60.3283 13.3514 60.3251 13.6422V14.8455C60.3251 15.2099 60.3922 15.5247 60.5265 15.79C60.6639 16.0552 60.8572 16.2598 61.1065 16.4036C61.3558 16.5474 61.6515 16.6193 61.9934 16.6193C62.2203 16.6193 62.4281 16.5874 62.6167 16.5234C62.8052 16.4595 62.9666 16.3636 63.1009 16.2358C63.2351 16.108 63.3374 15.9513 63.4077 15.766L65.2965 15.8906C65.2006 16.3445 65.0041 16.7408 64.7069 17.0795C64.4128 17.4151 64.0325 17.6772 63.5659 17.8658C63.1025 18.0511 62.5671 18.1438 61.9599 18.1438ZM67.8661 18.1246C67.5497 18.1246 67.2781 18.0128 67.0511 17.7891C66.8274 17.5621 66.7156 17.2905 66.7156 16.9741C66.7156 16.6609 66.8274 16.3924 67.0511 16.1687C67.2781 15.945 67.5497 15.8331 67.8661 15.8331C68.1729 15.8331 68.4414 15.945 68.6715 16.1687C68.9016 16.3924 69.0167 16.6609 69.0167 16.9741C69.0167 17.185 68.9624 17.3784 68.8537 17.5542C68.7482 17.7267 68.6092 17.8658 68.4366 17.9712C68.264 18.0735 68.0739 18.1246 67.8661 18.1246ZM70.6934 10.6364H72.7357V18.3643C72.7357 18.9332 72.6238 19.3935 72.4001 19.745C72.1764 20.0966 71.8552 20.3539 71.4365 20.5169C71.021 20.6799 70.524 20.7614 69.9455 20.7614C69.8752 20.7614 69.8081 20.7598 69.7442 20.7566C69.6771 20.7566 69.6068 20.755 69.5332 20.7518V19.1554C69.5876 19.1586 69.6355 19.1602 69.6771 19.1602C69.7154 19.1634 69.757 19.165 69.8017 19.165C70.1309 19.165 70.361 19.0946 70.4921 18.954C70.6263 18.8166 70.6934 18.6088 70.6934 18.3308V10.6364ZM71.7097 9.68714C71.4093 9.68714 71.1504 9.58647 70.9331 9.38512C70.7158 9.18057 70.6071 8.93608 70.6071 8.65163C70.6071 8.37038 70.7158 8.12908 70.9331 7.92773C71.1504 7.72319 71.4093 7.62092 71.7097 7.62092C72.0166 7.62092 72.277 7.72319 72.4912 7.92773C72.7085 8.12908 72.8172 8.37038 72.8172 8.65163C72.8172 8.93608 72.7085 9.18057 72.4912 9.38512C72.277 9.58647 72.0166 9.68714 71.7097 9.68714ZM80.4984 12.7362L78.6287 12.8512C78.5968 12.6914 78.5281 12.5476 78.4226 12.4197C78.3171 12.2887 78.1781 12.1848 78.0055 12.1081C77.8361 12.0282 77.6332 11.9883 77.3967 11.9883C77.0803 11.9883 76.8134 12.0554 76.5961 12.1896C76.3787 12.3207 76.2701 12.4964 76.2701 12.717C76.2701 12.8928 76.3404 13.0414 76.481 13.1628C76.6216 13.2843 76.8629 13.3817 77.2049 13.4553L78.5376 13.7237C79.2536 13.8707 79.7873 14.1072 80.1388 14.4332C80.4904 14.7592 80.6662 15.1875 80.6662 15.718C80.6662 16.2006 80.524 16.6241 80.2395 16.9885C79.9583 17.3528 79.5716 17.6373 79.0794 17.8418C78.5904 18.0431 78.0263 18.1438 77.3871 18.1438C76.4123 18.1438 75.6357 17.9409 75.0572 17.535C74.4819 17.1259 74.1447 16.5698 74.0456 15.8667L76.0543 15.7612C76.1151 16.0584 76.2621 16.2853 76.4954 16.4419C76.7287 16.5953 77.0275 16.6721 77.3919 16.6721C77.7498 16.6721 78.0375 16.6033 78.2548 16.4659C78.4753 16.3253 78.5872 16.1447 78.5904 15.9242C78.5872 15.7388 78.5089 15.587 78.3555 15.4688C78.2021 15.3473 77.9656 15.2546 77.646 15.1907L76.3707 14.9366C75.6516 14.7928 75.1163 14.5435 74.7647 14.1887C74.4164 13.834 74.2422 13.3817 74.2422 12.832C74.2422 12.359 74.37 11.9515 74.6257 11.6096C74.8846 11.2676 75.2473 11.0039 75.714 10.8185C76.1838 10.6332 76.7335 10.5405 77.3631 10.5405C78.2931 10.5405 79.025 10.737 79.5588 11.1301C80.0957 11.5233 80.4089 12.0586 80.4984 12.7362Z" fill="white"/>
</g>
<g clip-path="url(#clip1_26_803)">
<path d="M12.786 4.22685C13.211 3.98619 13.7529 3.98513 14.1673 4.22685L20.5125 7.80376C20.9093 8.02688 21.175 8.46941 21.1713 8.92682V16.0987C21.1739 16.5752 20.8823 17.0273 20.4636 17.2462L14.1524 20.8066C13.9365 20.9259 13.6926 20.9852 13.4461 20.9784C13.1996 20.9716 12.9594 20.8989 12.7504 20.7678L10.8565 19.6735C10.7274 19.5964 10.5824 19.5353 10.491 19.4105C10.5718 19.3021 10.7152 19.2883 10.8321 19.2405C11.0956 19.1566 11.3368 19.028 11.579 18.892C11.6401 18.8495 11.715 18.8654 11.7734 18.9037L13.3884 19.8376C13.5037 19.904 13.6206 19.8164 13.7194 19.7606L19.9164 16.2634C19.9929 16.2262 20.0354 16.1454 20.0291 16.0615V8.95869C20.0376 8.86307 19.9828 8.77594 19.8963 8.73716L13.6009 5.19213C13.5647 5.16704 13.5216 5.15355 13.4775 5.15346C13.4334 5.15336 13.3903 5.16666 13.3539 5.1916L7.06763 8.74407C6.98263 8.78285 6.92419 8.86891 6.93482 8.96454V16.0674C6.92738 16.1513 6.97201 16.2304 7.04904 16.2666L8.72885 17.2149C9.04441 17.3849 9.43169 17.4805 9.77913 17.3556C9.93117 17.2983 10.0621 17.1959 10.1543 17.0621C10.2465 16.9284 10.2956 16.7696 10.295 16.6071L10.2966 9.54679C10.2891 9.44213 10.3879 9.35554 10.4894 9.36616H11.2969C11.4032 9.36351 11.4866 9.47613 11.4722 9.58132L11.4706 16.6863C11.4712 17.3174 11.2119 18.0038 10.6281 18.3135C9.90876 18.6854 9.01944 18.6073 8.30863 18.2497L6.50238 17.251C6.07738 17.0385 5.7921 16.5795 5.79476 16.1035V8.9316C5.79652 8.6985 5.86061 8.47012 5.98036 8.27013C6.10011 8.07013 6.27118 7.90581 6.47582 7.79419L12.786 4.22685ZM14.6156 9.19829C15.5331 9.14516 16.5154 9.16323 17.3409 9.61532C17.98 9.96169 18.3344 10.6884 18.3461 11.3993C18.328 11.4949 18.2281 11.548 18.1368 11.5411C17.8711 11.5406 17.6044 11.5448 17.3378 11.5395C17.2246 11.5438 17.1593 11.4396 17.1449 11.3398C17.0684 10.9998 16.883 10.6635 16.5632 10.4993C16.0723 10.2534 15.5028 10.2656 14.9673 10.2709C14.5763 10.2921 14.1561 10.3256 13.8251 10.5551C13.5701 10.7294 13.4936 11.0864 13.5845 11.3637C13.6695 11.5671 13.9048 11.6325 14.0966 11.693C15.2027 11.982 16.3741 11.9587 17.4594 12.3343C17.9083 12.4894 18.3477 12.7911 18.5017 13.2613C18.7025 13.8914 18.6149 14.6447 18.167 15.1504C17.8037 15.5669 17.2745 15.7879 16.7459 15.9165C16.0431 16.0732 15.3142 16.0769 14.6008 16.0068C13.9298 15.9303 13.2317 15.7539 12.7138 15.297C12.2707 14.9124 12.055 14.3132 12.0763 13.7352C12.0816 13.6374 12.1788 13.5694 12.2728 13.5774H13.0697C13.177 13.5699 13.2556 13.6624 13.2609 13.7633C13.3104 14.0821 13.432 14.4274 13.7146 14.6133C14.2597 14.965 14.9434 14.9406 15.5671 14.9507C16.084 14.9278 16.6641 14.9209 17.0865 14.5788C17.3096 14.3838 17.3749 14.0582 17.3149 13.7777C17.2496 13.5407 16.9962 13.4308 16.7837 13.3527C15.6919 13.0073 14.5073 13.1327 13.4262 12.7417C12.9874 12.5866 12.5629 12.2934 12.3945 11.8423C12.1591 11.2048 12.267 10.4149 12.7626 9.9261C13.2408 9.44001 13.942 9.25248 14.6061 9.18554L14.6156 9.19829Z" fill="#8CC84B"/>
</g>
<defs>
<clipPath id="clip0_26_803">
<rect width="55" height="26" fill="white" transform="translate(31)"/>
</clipPath>
<clipPath id="clip1_26_803">
<rect width="17" height="17" fill="white" transform="translate(5 4)"/>
</clipPath>
</defs>
</svg>
