<svg width="100" height="26" viewBox="0 0 100 26" fill="none" xmlns="http://www.w3.org/2000/svg">
<rect width="100" height="26" rx="8" fill="#3C3C3B"/>
<line x1="26.5" y1="19.5" x2="26.5" y2="6.5" stroke="#5C5B58" stroke-linecap="round"/>
<g clip-path="url(#clip0_26_766)">
<path d="M31.8533 8.18182H34.4134L37.1172 14.7784H37.2322L39.9361 8.18182H42.4961V18H40.4826V11.6096H40.4011L37.8603 17.9521H36.4892L33.9483 11.5856H33.8668V18H31.8533V8.18182ZM47.4951 18.1438C46.7504 18.1438 46.1064 17.9856 45.5631 17.6692C45.0229 17.3496 44.6059 16.9054 44.3118 16.3365C44.0178 15.7644 43.8708 15.1012 43.8708 14.3469C43.8708 13.5863 44.0178 12.9215 44.3118 12.3526C44.6059 11.7805 45.0229 11.3363 45.5631 11.0199C46.1064 10.7003 46.7504 10.5405 47.4951 10.5405C48.2397 10.5405 48.8821 10.7003 49.4223 11.0199C49.9656 11.3363 50.3843 11.7805 50.6783 12.3526C50.9723 12.9215 51.1194 13.5863 51.1194 14.3469C51.1194 15.1012 50.9723 15.7644 50.6783 16.3365C50.3843 16.9054 49.9656 17.3496 49.4223 17.6692C48.8821 17.9856 48.2397 18.1438 47.4951 18.1438ZM47.5047 16.5618C47.8434 16.5618 48.1263 16.4659 48.3532 16.2741C48.5801 16.0792 48.7511 15.8139 48.8662 15.4783C48.9844 15.1428 49.0435 14.7608 49.0435 14.3326C49.0435 13.9043 48.9844 13.5224 48.8662 13.1868C48.7511 12.8512 48.5801 12.5859 48.3532 12.391C48.1263 12.196 47.8434 12.0985 47.5047 12.0985C47.1627 12.0985 46.875 12.196 46.6417 12.391C46.4116 12.5859 46.2374 12.8512 46.1192 13.1868C46.0041 13.5224 45.9466 13.9043 45.9466 14.3326C45.9466 14.7608 46.0041 15.1428 46.1192 15.4783C46.2374 15.8139 46.4116 16.0792 46.6417 16.2741C46.875 16.4659 47.1627 16.5618 47.5047 16.5618ZM54.4896 13.7429V18H52.4473V10.6364H54.3937V11.9355H54.48C54.643 11.5073 54.9162 11.1685 55.2998 10.9192C55.6833 10.6667 56.1483 10.5405 56.6948 10.5405C57.2062 10.5405 57.652 10.6523 58.0324 10.8761C58.4127 11.0998 58.7083 11.4194 58.9193 11.8349C59.1302 12.2472 59.2357 12.7393 59.2357 13.3114V18H57.1934V13.6758C57.1966 13.2251 57.0815 12.8736 56.8482 12.6211C56.6149 12.3654 56.2937 12.2376 55.8846 12.2376C55.6098 12.2376 55.3669 12.2967 55.1559 12.415C54.9482 12.5332 54.7852 12.7058 54.6669 12.9327C54.5519 13.1564 54.4928 13.4265 54.4896 13.7429ZM64.1627 20.9148C63.5012 20.9148 62.9339 20.8237 62.4608 20.6415C61.991 20.4625 61.6171 20.218 61.339 19.908C61.061 19.598 60.8804 19.2496 60.7973 18.8629L62.6862 18.6088C62.7437 18.7559 62.8348 18.8933 62.9594 19.0211C63.0841 19.149 63.2487 19.2512 63.4532 19.3279C63.661 19.4078 63.9134 19.4478 64.2107 19.4478C64.6549 19.4478 65.0209 19.3391 65.3085 19.1218C65.5993 18.9077 65.7448 18.5481 65.7448 18.0431V16.696H65.6585C65.569 16.9006 65.4347 17.0939 65.2558 17.2761C65.0768 17.4583 64.8467 17.6069 64.5654 17.7219C64.2842 17.837 63.9486 17.8945 63.5587 17.8945C63.0058 17.8945 62.5024 17.7667 62.0486 17.511C61.5979 17.2521 61.2384 16.8574 60.9699 16.3269C60.7046 15.7931 60.572 15.1188 60.572 14.3038C60.572 13.4696 60.7078 12.7729 60.9795 12.2136C61.2512 11.6543 61.6123 11.2356 62.0629 10.9576C62.5168 10.6795 63.0138 10.5405 63.5539 10.5405C63.9662 10.5405 64.3113 10.6108 64.5894 10.7514C64.8675 10.8888 65.0912 11.0614 65.2606 11.2692C65.4332 11.4737 65.5658 11.6751 65.6585 11.8732H65.7352V10.6364H67.7631V18.0719C67.7631 18.6983 67.6096 19.2225 67.3028 19.6444C66.996 20.0662 66.5709 20.3826 66.0276 20.5936C65.4875 20.8077 64.8659 20.9148 64.1627 20.9148ZM64.2059 16.3604C64.5351 16.3604 64.8131 16.2789 65.04 16.1159C65.2702 15.9498 65.4459 15.7132 65.5674 15.4064C65.692 15.0964 65.7544 14.7257 65.7544 14.2942C65.7544 13.8627 65.6936 13.4888 65.5722 13.1724C65.4507 12.8528 65.2749 12.6051 65.0448 12.4293C64.8147 12.2536 64.5351 12.1657 64.2059 12.1657C63.8703 12.1657 63.5874 12.2567 63.3573 12.4389C63.1272 12.6179 62.953 12.8672 62.8348 13.1868C62.7165 13.5064 62.6574 13.8755 62.6574 14.2942C62.6574 14.7193 62.7165 15.0868 62.8348 15.3968C62.9562 15.7037 63.1304 15.9418 63.3573 16.1112C63.5874 16.2773 63.8703 16.3604 64.2059 16.3604ZM72.7153 18.1438C71.9706 18.1438 71.3266 17.9856 70.7833 17.6692C70.2432 17.3496 69.8261 16.9054 69.532 16.3365C69.238 15.7644 69.091 15.1012 69.091 14.3469C69.091 13.5863 69.238 12.9215 69.532 12.3526C69.8261 11.7805 70.2432 11.3363 70.7833 11.0199C71.3266 10.7003 71.9706 10.5405 72.7153 10.5405C73.46 10.5405 74.1024 10.7003 74.6425 11.0199C75.1858 11.3363 75.6045 11.7805 75.8985 12.3526C76.1926 12.9215 76.3396 13.5863 76.3396 14.3469C76.3396 15.1012 76.1926 15.7644 75.8985 16.3365C75.6045 16.9054 75.1858 17.3496 74.6425 17.6692C74.1024 17.9856 73.46 18.1438 72.7153 18.1438ZM72.7249 16.5618C73.0637 16.5618 73.3465 16.4659 73.5734 16.2741C73.8003 16.0792 73.9713 15.8139 74.0864 15.4783C74.2046 15.1428 74.2638 14.7608 74.2638 14.3326C74.2638 13.9043 74.2046 13.5224 74.0864 13.1868C73.9713 12.8512 73.8003 12.5859 73.5734 12.391C73.3465 12.196 73.0637 12.0985 72.7249 12.0985C72.3829 12.0985 72.0953 12.196 71.8619 12.391C71.6318 12.5859 71.4577 12.8512 71.3394 13.1868C71.2243 13.5224 71.1668 13.9043 71.1668 14.3326C71.1668 14.7608 71.2243 15.1428 71.3394 15.4783C71.4577 15.8139 71.6318 16.0792 71.8619 16.2741C72.0953 16.4659 72.3829 16.5618 72.7249 16.5618ZM81.1863 18H77.7059V8.18182H81.2151C82.2027 8.18182 83.0528 8.37837 83.7655 8.77148C84.4782 9.1614 85.0264 9.7223 85.4099 10.4542C85.7966 11.1861 85.99 12.0618 85.99 13.0813C85.99 14.104 85.7966 14.983 85.4099 15.718C85.0264 16.4531 84.4751 17.0172 83.7559 17.4103C83.04 17.8034 82.1835 18 81.1863 18ZM79.7817 16.2214H81.1001C81.7137 16.2214 82.2298 16.1127 82.6485 15.8954C83.0704 15.6749 83.3868 15.3345 83.5977 14.8743C83.8119 14.4109 83.9189 13.8132 83.9189 13.0813C83.9189 12.3558 83.8119 11.763 83.5977 11.3027C83.3868 10.8425 83.072 10.5037 82.6533 10.2864C82.2346 10.0691 81.7185 9.9604 81.1048 9.9604H79.7817V16.2214ZM87.5277 18V8.18182H91.4588C92.1811 8.18182 92.7835 8.28888 93.2661 8.50302C93.7487 8.71715 94.1115 9.01438 94.3544 9.39471C94.5973 9.77184 94.7187 10.2065 94.7187 10.6987C94.7187 11.0822 94.642 11.4194 94.4886 11.7102C94.3352 11.9979 94.1242 12.2344 93.8558 12.4197C93.5905 12.6019 93.2869 12.7314 92.9449 12.8081V12.9039C93.3188 12.9199 93.6688 13.0254 93.9948 13.2203C94.324 13.4153 94.5909 13.6886 94.7954 14.0401C95 14.3885 95.1022 14.804 95.1022 15.2866C95.1022 15.8075 94.9728 16.2725 94.7139 16.6816C94.4582 17.0875 94.0795 17.4087 93.5777 17.6452C93.076 17.8817 92.4575 18 91.7224 18H87.5277ZM89.6035 16.3029H91.2958C91.8742 16.3029 92.2961 16.1926 92.5614 15.9721C92.8267 15.7484 92.9593 15.4512 92.9593 15.0804C92.9593 14.8088 92.8938 14.5691 92.7627 14.3613C92.6317 14.1536 92.4447 13.9906 92.2018 13.8723C91.9621 13.7541 91.6761 13.695 91.3437 13.695H89.6035V16.3029ZM89.6035 12.2903H91.1424C91.4268 12.2903 91.6793 12.2408 91.8998 12.1417C92.1235 12.0394 92.2993 11.8956 92.4272 11.7102C92.5582 11.5249 92.6237 11.3027 92.6237 11.0439C92.6237 10.6891 92.4975 10.4031 92.245 10.1857C91.9957 9.96839 91.6409 9.85973 91.1807 9.85973H89.6035V12.2903Z" fill="white"/>
</g>
<g clip-path="url(#clip1_26_766)">
<path d="M12.95 5.04349L13.377 5.84549C13.473 5.99349 13.577 6.12449 13.6995 6.24649C14.057 6.60399 14.3965 6.97849 14.7015 7.37949C15.425 8.32949 15.913 9.38449 16.2615 10.5255C16.4705 11.2225 16.584 11.9375 16.5925 12.6605C16.6275 14.822 15.8865 16.678 14.3925 18.2205C14.1485 18.4645 13.8875 18.6905 13.6075 18.8915C13.4595 18.8915 13.3895 18.778 13.3285 18.6735C13.215 18.482 13.1455 18.2635 13.1105 18.046C13.058 17.7845 13.0235 17.523 13.0405 17.253V17.131C13.0285 17.105 12.898 5.10499 12.95 5.04349Z" fill="#599636"/>
<path d="M12.95 5.01699C12.9325 4.98199 12.915 5.00849 12.8975 5.02549C12.906 5.20049 12.845 5.35649 12.7495 5.50549C12.6445 5.65349 12.5055 5.76699 12.366 5.88899C11.591 6.55999 10.981 7.37049 10.4925 8.27699C9.84247 9.49699 9.50747 10.8045 9.41247 12.181C9.36897 12.6775 9.56947 14.4295 9.72597 14.935C10.153 16.277 10.92 17.4015 11.9135 18.3775C12.1575 18.6125 12.4185 18.8305 12.6885 19.04C12.767 19.04 12.7755 18.97 12.7935 18.918C12.8279 18.8067 12.8541 18.6931 12.872 18.578L13.047 17.271L12.95 5.01699Z" fill="#6CAC48"/>
<path d="M13.377 19.4225C13.3945 19.2225 13.4905 19.0565 13.595 18.891C13.49 18.8475 13.412 18.761 13.351 18.6645C13.2985 18.5775 13.255 18.473 13.221 18.377C13.099 18.011 13.073 17.627 13.038 17.253V17.0265C12.9945 17.0615 12.9855 17.3575 12.9855 17.4015C12.96 17.7968 12.9076 18.1899 12.8285 18.578C12.8025 18.735 12.785 18.8915 12.6885 19.031C12.6885 19.0485 12.6885 19.066 12.697 19.092C12.854 19.554 12.897 20.0245 12.9235 20.504V20.679C12.9235 20.888 12.915 20.844 13.0885 20.914C13.1585 20.94 13.2365 20.949 13.3065 21.001C13.359 21.001 13.3675 20.9575 13.3675 20.9225L13.3415 20.635V19.833C13.333 19.693 13.359 19.554 13.3765 19.423L13.377 19.4225Z" fill="#C2BFBF"/>
</g>
<defs>
<clipPath id="clip0_26_766">
<rect width="69" height="26" fill="white" transform="translate(31)"/>
</clipPath>
<clipPath id="clip1_26_766">
<rect width="16" height="16" fill="white" transform="translate(5 5)"/>
</clipPath>
</defs>
</svg>
