<svg width="73" height="26" viewBox="0 0 73 26" fill="none" xmlns="http://www.w3.org/2000/svg">
<rect width="73" height="26" rx="8" fill="#3C3C3B"/>
<line x1="26.5" y1="19.5" x2="26.5" y2="6.5" stroke="#5C5B58" stroke-linecap="round"/>
<path d="M31.4794 9.89329V8.18182H39.543V9.89329H36.5371V18H34.4853V9.89329H31.4794ZM40.0679 18V10.6364H42.0479V11.9212H42.1246C42.2588 11.4641 42.4841 11.119 42.8005 10.8857C43.1169 10.6491 43.4813 10.5309 43.8936 10.5309C43.9958 10.5309 44.1061 10.5373 44.2243 10.5501C44.3426 10.5629 44.4465 10.5804 44.536 10.6028V12.415C44.4401 12.3862 44.3074 12.3606 44.1381 12.3382C43.9687 12.3159 43.8137 12.3047 43.673 12.3047C43.3726 12.3047 43.1041 12.3702 42.8676 12.5012C42.6343 12.6291 42.449 12.8081 42.3115 13.0382C42.1773 13.2683 42.1102 13.5336 42.1102 13.834V18H40.0679ZM48.6049 18.1438C47.8474 18.1438 47.1954 17.9904 46.6489 17.6836C46.1056 17.3736 45.6869 16.9357 45.3929 16.37C45.0989 15.8011 44.9518 15.1284 44.9518 14.3517C44.9518 13.5943 45.0989 12.9295 45.3929 12.3574C45.6869 11.7853 46.1008 11.3395 46.6345 11.0199C47.1715 10.7003 47.8011 10.5405 48.5234 10.5405C49.0092 10.5405 49.4614 10.6188 49.8801 10.7754C50.302 10.9288 50.6695 11.1605 50.9827 11.4705C51.2991 11.7805 51.5452 12.1705 51.721 12.6403C51.8968 13.1069 51.9847 13.6534 51.9847 14.2798V14.8407H45.7668V13.5751H50.0623C50.0623 13.2811 49.9984 13.0206 49.8705 12.7937C49.7427 12.5668 49.5653 12.3894 49.3384 12.2615C49.1147 12.1305 48.8542 12.065 48.557 12.065C48.2469 12.065 47.9721 12.1369 47.7324 12.2807C47.4959 12.4213 47.3105 12.6115 47.1763 12.8512C47.042 13.0877 46.9733 13.3514 46.9701 13.6422V14.8455C46.9701 15.2099 47.0372 15.5247 47.1715 15.79C47.3089 16.0552 47.5023 16.2598 47.7516 16.4036C48.0008 16.5474 48.2965 16.6193 48.6384 16.6193C48.8654 16.6193 49.0731 16.5874 49.2617 16.5234C49.4502 16.4595 49.6116 16.3636 49.7459 16.2358C49.8801 16.108 49.9824 15.9513 50.0527 15.766L51.9415 15.8906C51.8457 16.3445 51.6491 16.7408 51.3519 17.0795C51.0578 17.4151 50.6775 17.6772 50.2109 17.8658C49.7475 18.0511 49.2121 18.1438 48.6049 18.1438ZM55.3597 8.18182V18H53.3174V8.18182H55.3597ZM59.0379 8.18182V18H56.9956V8.18182H59.0379ZM64.0009 18.1438C63.2563 18.1438 62.6123 17.9856 62.0689 17.6692C61.5288 17.3496 61.1117 16.9054 60.8177 16.3365C60.5237 15.7644 60.3766 15.1012 60.3766 14.3469C60.3766 13.5863 60.5237 12.9215 60.8177 12.3526C61.1117 11.7805 61.5288 11.3363 62.0689 11.0199C62.6123 10.7003 63.2563 10.5405 64.0009 10.5405C64.7456 10.5405 65.388 10.7003 65.9281 11.0199C66.4715 11.3363 66.8901 11.7805 67.1842 12.3526C67.4782 12.9215 67.6252 13.5863 67.6252 14.3469C67.6252 15.1012 67.4782 15.7644 67.1842 16.3365C66.8901 16.9054 66.4715 17.3496 65.9281 17.6692C65.388 17.9856 64.7456 18.1438 64.0009 18.1438ZM64.0105 16.5618C64.3493 16.5618 64.6321 16.4659 64.8591 16.2741C65.086 16.0792 65.257 15.8139 65.372 15.4783C65.4903 15.1428 65.5494 14.7608 65.5494 14.3326C65.5494 13.9043 65.4903 13.5224 65.372 13.1868C65.257 12.8512 65.086 12.5859 64.8591 12.391C64.6321 12.196 64.3493 12.0985 64.0105 12.0985C63.6685 12.0985 63.3809 12.196 63.1476 12.391C62.9175 12.5859 62.7433 12.8512 62.625 13.1868C62.51 13.5224 62.4525 13.9043 62.4525 14.3326C62.4525 14.7608 62.51 15.1428 62.625 15.4783C62.7433 15.8139 62.9175 16.0792 63.1476 16.2741C63.3809 16.4659 63.6685 16.5618 64.0105 16.5618Z" fill="white"/>
<g clip-path="url(#clip0_26_752)">
<path fill-rule="evenodd" clip-rule="evenodd" d="M19.76 4H6.25143C5.95553 4 5.66253 4.05828 5.38919 4.17152C5.11584 4.28475 4.86752 4.45071 4.65842 4.65991C4.44932 4.86912 4.28354 5.11745 4.17056 5.39072C4.05758 5.66399 3.99963 5.95683 4 6.2525V19.7504C4 20.347 4.23721 20.9192 4.65943 21.3411C5.08165 21.763 5.65431 22 6.25143 22H19.76C20.3551 21.997 20.9249 21.7586 21.3446 21.3371C21.7644 20.9155 22 20.345 22 19.7504V6.25535C22 5.66068 21.7644 5.0902 21.3446 4.66864C20.9249 4.24708 20.3551 4.00873 19.76 4.00571V4ZM11.8343 17.6349C11.8313 17.9191 11.7162 18.1907 11.5139 18.3906C11.3117 18.5905 11.0388 18.7026 10.7543 18.7026H7.42857C7.14312 18.7041 6.86867 18.5927 6.66522 18.3926C6.46178 18.1925 6.34588 17.9201 6.34286 17.6349V7.42585C6.34248 7.28342 6.37032 7.14231 6.42479 7.01068C6.47925 6.87905 6.55926 6.75949 6.66019 6.65891C6.76112 6.55832 6.88098 6.4787 7.01286 6.42462C7.14474 6.37055 7.28602 6.3431 7.42857 6.34385H10.7543C11.0407 6.34385 11.3154 6.45755 11.518 6.65993C11.7205 6.86231 11.8343 7.13679 11.8343 7.423V17.6349ZM19.6714 13.1356C19.6714 13.4218 19.5576 13.6963 19.3551 13.8987C19.1526 14.1011 18.8779 14.2147 18.5914 14.2147H15.2571C14.9707 14.2147 14.696 14.1011 14.4935 13.8987C14.2909 13.6963 14.1771 13.4218 14.1771 13.1356V7.42585C14.1768 7.2839 14.2044 7.14326 14.2585 7.01201C14.3126 6.88075 14.3921 6.76145 14.4925 6.66094C14.5928 6.56043 14.712 6.48068 14.8432 6.42627C14.9744 6.37186 15.1151 6.34385 15.2571 6.34385H18.5914C18.8779 6.34385 19.1526 6.45755 19.3551 6.65993C19.5576 6.86231 19.6714 7.13679 19.6714 7.423V13.1356Z" fill="url(#paint0_linear_26_752)"/>
</g>
<defs>
<linearGradient id="paint0_linear_26_752" x1="13.0057" y1="22.0029" x2="13.0057" y2="4.00285" gradientUnits="userSpaceOnUse">
<stop offset="0.18" stop-color="#0052CC"/>
<stop offset="1" stop-color="#2684FF"/>
</linearGradient>
<clipPath id="clip0_26_752">
<rect x="4" y="4" width="18" height="18" rx="5" fill="white"/>
</clipPath>
</defs>
</svg>
