<svg width="78" height="26" viewBox="0 0 78 26" fill="none" xmlns="http://www.w3.org/2000/svg">
<rect width="78" height="26" rx="8" fill="#3C3C3B"/>
<line x1="26.5" y1="19.5" x2="26.5" y2="6.5" stroke="#5C5B58" stroke-linecap="round"/>
<path d="M33.6271 8.18182L36.0002 15.6413H36.0913L38.4691 8.18182H40.7702L37.3857 18H34.7106L31.3212 8.18182H33.6271ZM46.6357 14.8647V10.6364H48.678V18H46.7172V16.6625H46.6405C46.4743 17.0939 46.1979 17.4407 45.8112 17.7028C45.4276 17.9648 44.9594 18.0959 44.4065 18.0959C43.9143 18.0959 43.4813 17.984 43.1073 17.7603C42.7334 17.5366 42.441 17.2186 42.23 16.8063C42.0223 16.394 41.9168 15.9002 41.9136 15.3249V10.6364H43.9559V14.9606C43.9591 15.3952 44.0757 15.7388 44.3058 15.9913C44.536 16.2438 44.8444 16.37 45.2311 16.37C45.4772 16.37 45.7073 16.3141 45.9214 16.2022C46.1356 16.0872 46.3081 15.9178 46.4392 15.6941C46.5734 15.4703 46.6389 15.1939 46.6357 14.8647ZM53.6674 18.1438C52.9099 18.1438 52.2579 17.9904 51.7114 17.6836C51.1681 17.3736 50.7494 16.9357 50.4554 16.37C50.1614 15.8011 50.0143 15.1284 50.0143 14.3517C50.0143 13.5943 50.1614 12.9295 50.4554 12.3574C50.7494 11.7853 51.1633 11.3395 51.697 11.0199C52.234 10.7003 52.8636 10.5405 53.5859 10.5405C54.0717 10.5405 54.5239 10.6188 54.9426 10.7754C55.3645 10.9288 55.732 11.1605 56.0452 11.4705C56.3616 11.7805 56.6077 12.1705 56.7835 12.6403C56.9593 13.1069 57.0472 13.6534 57.0472 14.2798V14.8407H50.8293V13.5751H55.1248C55.1248 13.2811 55.0609 13.0206 54.933 12.7937C54.8052 12.5668 54.6278 12.3894 54.4009 12.2615C54.1772 12.1305 53.9167 12.065 53.6195 12.065C53.3094 12.065 53.0346 12.1369 52.7949 12.2807C52.5584 12.4213 52.373 12.6115 52.2388 12.8512C52.1045 13.0877 52.0358 13.3514 52.0326 13.6422V14.8455C52.0326 15.2099 52.0997 15.5247 52.234 15.79C52.3714 16.0552 52.5648 16.2598 52.8141 16.4036C53.0633 16.5474 53.359 16.6193 53.7009 16.6193C53.9279 16.6193 54.1356 16.5874 54.3242 16.5234C54.5127 16.4595 54.6741 16.3636 54.8084 16.2358C54.9426 16.108 55.0449 15.9513 55.1152 15.766L57.004 15.8906C56.9082 16.3445 56.7116 16.7408 56.4144 17.0795C56.1203 17.4151 55.74 17.6772 55.2734 17.8658C54.81 18.0511 54.2746 18.1438 53.6674 18.1438ZM59.5736 18.1246C59.2572 18.1246 58.9856 18.0128 58.7587 17.7891C58.5349 17.5621 58.4231 17.2905 58.4231 16.9741C58.4231 16.6609 58.5349 16.3924 58.7587 16.1687C58.9856 15.945 59.2572 15.8331 59.5736 15.8331C59.8805 15.8331 60.1489 15.945 60.379 16.1687C60.6092 16.3924 60.7242 16.6609 60.7242 16.9741C60.7242 17.185 60.6699 17.3784 60.5612 17.5542C60.4557 17.7267 60.3167 17.8658 60.1441 17.9712C59.9715 18.0735 59.7814 18.1246 59.5736 18.1246ZM62.4009 10.6364H64.4432V18.3643C64.4432 18.9332 64.3313 19.3935 64.1076 19.745C63.8839 20.0966 63.5627 20.3539 63.144 20.5169C62.7285 20.6799 62.2315 20.7614 61.6531 20.7614C61.5827 20.7614 61.5156 20.7598 61.4517 20.7566C61.3846 20.7566 61.3143 20.755 61.2408 20.7518V19.1554C61.2951 19.1586 61.343 19.1602 61.3846 19.1602C61.4229 19.1634 61.4645 19.165 61.5092 19.165C61.8384 19.165 62.0685 19.0946 62.1996 18.954C62.3338 18.8166 62.4009 18.6088 62.4009 18.3308V10.6364ZM63.4173 9.68714C63.1168 9.68714 62.858 9.58647 62.6406 9.38512C62.4233 9.18057 62.3146 8.93608 62.3146 8.65163C62.3146 8.37038 62.4233 8.12908 62.6406 7.92773C62.858 7.72319 63.1168 7.62092 63.4173 7.62092C63.7241 7.62092 63.9846 7.72319 64.1987 7.92773C64.416 8.12908 64.5247 8.37038 64.5247 8.65163C64.5247 8.93608 64.416 9.18057 64.1987 9.38512C63.9846 9.58647 63.7241 9.68714 63.4173 9.68714ZM72.2059 12.7362L70.3362 12.8512C70.3043 12.6914 70.2356 12.5476 70.1301 12.4197C70.0246 12.2887 69.8856 12.1848 69.713 12.1081C69.5436 12.0282 69.3407 11.9883 69.1042 11.9883C68.7878 11.9883 68.5209 12.0554 68.3036 12.1896C68.0862 12.3207 67.9776 12.4964 67.9776 12.717C67.9776 12.8928 68.0479 13.0414 68.1885 13.1628C68.3291 13.2843 68.5704 13.3817 68.9124 13.4553L70.2452 13.7237C70.9611 13.8707 71.4948 14.1072 71.8464 14.4332C72.1979 14.7592 72.3737 15.1875 72.3737 15.718C72.3737 16.2006 72.2315 16.6241 71.947 16.9885C71.6658 17.3528 71.2791 17.6373 70.7869 17.8418C70.2979 18.0431 69.7338 18.1438 69.0946 18.1438C68.1198 18.1438 67.3432 17.9409 66.7647 17.535C66.1894 17.1259 65.8522 16.5698 65.7532 15.8667L67.7619 15.7612C67.8226 16.0584 67.9696 16.2853 68.2029 16.4419C68.4362 16.5953 68.735 16.6721 69.0994 16.6721C69.4573 16.6721 69.745 16.6033 69.9623 16.4659C70.1828 16.3253 70.2947 16.1447 70.2979 15.9242C70.2947 15.7388 70.2164 15.587 70.063 15.4688C69.9096 15.3473 69.6731 15.2546 69.3535 15.1907L68.0783 14.9366C67.3592 14.7928 66.8238 14.5435 66.4723 14.1887C66.1239 13.834 65.9497 13.3817 65.9497 12.832C65.9497 12.359 66.0775 11.9515 66.3332 11.6096C66.5921 11.2676 66.9549 11.0039 67.4215 10.8185C67.8913 10.6332 68.441 10.5405 69.0706 10.5405C70.0007 10.5405 70.7326 10.737 71.2663 11.1301C71.8032 11.5233 72.1164 12.0586 72.2059 12.7362Z" fill="white"/>
<g clip-path="url(#clip0_26_791)">
<path d="M15.0778 5.00006L12.9994 8.69505L10.9211 5.00006H3.99969L12.9995 20.9999L21.9993 5.00006H15.0778Z" fill="#41B883"/>
<path d="M15.0778 5.00006L12.9994 8.69505L10.921 5.00006H7.59961L12.9995 14.5998L18.3993 5.00006H15.0778Z" fill="#34495E"/>
</g>
<defs>
<clipPath id="clip0_26_791">
<rect width="18" height="16" fill="white" transform="translate(4 5)"/>
</clipPath>
</defs>
</svg>
